<svg width="743" height="687" viewBox="0 0 743 687" fill="none" xmlns="http://www.w3.org/2000/svg">
<path fill-rule="evenodd" clip-rule="evenodd" d="M559.029 640.617C636.423 643.197 613.572 599.442 627.516 547.905C590.082 551.523 527.322 557.313 481.716 547.923C486.393 558.378 487.563 572.154 491.358 583.698C501.141 629.433 508.548 643.629 559.029 640.617Z" fill="#FECDC7"/>
<path fill-rule="evenodd" clip-rule="evenodd" d="M503.283 551.514C535.884 552.864 575.751 556.131 604.936 549.666C572.61 544.338 533.313 542.802 503.283 551.514Z" fill="#5F4134"/>
<path fill-rule="evenodd" clip-rule="evenodd" d="M503.283 551.514C511.338 546.885 531.627 552.561 519.552 539.949C501.399 539.283 464.595 548.481 503.283 551.514Z" fill="#FDADA7"/>
<path fill-rule="evenodd" clip-rule="evenodd" d="M596.475 548.526C604.14 550.26 621.936 552.864 624.384 543.912C611.781 540.738 598.218 535.566 596.475 548.526Z" fill="#FDADA7"/>
<path fill-rule="evenodd" clip-rule="evenodd" d="M620.986 542.154C624.019 545.076 625.777 544.77 621.793 548.004C629.53 546.558 628 543.261 620.986 542.154Z" fill="#FDB7B2"/>
<path fill-rule="evenodd" clip-rule="evenodd" d="M484.944 548.823C484.509 547.566 482.91 546.999 484.533 546.069C494.925 540.546 474.087 547.74 484.944 548.823Z" fill="#FDB7B2"/>
<path fill-rule="evenodd" clip-rule="evenodd" d="M620.997 548.04C619.044 547.962 616.287 547.47 615.33 549.624C617.1 548.673 619.398 549.603 620.997 548.04Z" fill="#FDB7B2"/>
<path fill-rule="evenodd" clip-rule="evenodd" d="M611.03 550.422C610.028 549.351 608.639 549.462 607.517 550.698C608.687 550.608 609.857 550.512 611.03 550.422Z" fill="#FDB7B2"/>
<path fill-rule="evenodd" clip-rule="evenodd" d="M626.891 550.449C626.981 549.546 627.077 548.643 627.17 547.743C626.177 548.763 626.06 549.906 626.891 550.449Z" fill="#FED9D4"/>
<path fill-rule="evenodd" clip-rule="evenodd" d="M612.644 549.909C611.942 549.384 611.867 549.876 611.825 550.416C612.095 550.248 612.371 550.08 612.644 549.909Z" fill="#FDB7B2"/>
<path fill-rule="evenodd" clip-rule="evenodd" d="M614.529 549.648C613.983 549.81 614.256 549.726 614.529 549.648C614.097 549.177 613.83 549.267 614.529 549.648Z" fill="#FDB7B2"/>
<path fill-rule="evenodd" clip-rule="evenodd" d="M589.229 547.596C610.667 534.228 532.77 533.043 530.148 544.317C548.172 549.735 569.949 543.705 589.229 547.596Z" fill="#FECDC7"/>
<path fill-rule="evenodd" clip-rule="evenodd" d="M540.231 546.426C531.819 546.681 530.136 545.265 532.071 538.971C508.794 537.405 524.607 551.952 540.231 546.426Z" fill="#FDB7B2"/>
<path fill-rule="evenodd" clip-rule="evenodd" d="M595.673 539.394C591.278 542.838 587.832 549.651 596.471 548.523C600.644 542.505 604.031 542.49 595.673 539.394Z" fill="#FDB7B2"/>
<path fill-rule="evenodd" clip-rule="evenodd" d="M604.283 540.246C607.331 541.134 613.277 543.297 616.178 541.437C612.296 540.237 608.309 540.213 604.283 540.246Z" fill="#FDB7B2"/>
<path fill-rule="evenodd" clip-rule="evenodd" d="M488.445 544.026C488.805 544.365 489.126 544.821 489.552 544.98C492.708 542.484 492.063 543.099 488.445 544.026Z" fill="#FDB7B2"/>
<path fill-rule="evenodd" clip-rule="evenodd" d="M618.06 541.5C619.47 541.92 618.762 541.707 618.06 541.5C617.415 543.336 619.161 543.408 618.06 541.5Z" fill="#FDB7B2"/>
<path fill-rule="evenodd" clip-rule="evenodd" d="M498.144 542.097C499.614 541.926 501.675 543.009 502.473 541.419C501.03 541.647 499.587 541.872 498.144 542.097Z" fill="#FDB7B2"/>
<path fill-rule="evenodd" clip-rule="evenodd" d="M505.965 541.089C506.904 542.058 507.642 541.401 508.386 540.789C507.579 540.891 506.772 540.99 505.965 541.089Z" fill="#FDB7B2"/>
<path fill-rule="evenodd" clip-rule="evenodd" d="M510.264 540.588C511.005 541.404 511.599 541.023 512.16 540.36C511.527 540.435 510.897 540.513 510.264 540.588Z" fill="#FDB7B2"/>
<path fill-rule="evenodd" clip-rule="evenodd" d="M503.802 541.332C504.351 542.238 504.768 541.872 505.158 541.197C504.708 541.245 504.252 541.287 503.802 541.332Z" fill="#FDB7B2"/>
<path fill-rule="evenodd" clip-rule="evenodd" d="M509.202 540.78L509.739 540.639L509.202 540.78Z" fill="#FDB7B2"/>
<path fill-rule="evenodd" clip-rule="evenodd" d="M557.664 546.21C554.271 545.676 550.197 545.445 546.894 546.339C550.482 546.294 554.076 546.252 557.664 546.21Z" fill="#FDB7B2"/>
<path fill-rule="evenodd" clip-rule="evenodd" d="M546.381 546.354C545.562 545.595 543.114 545.562 542.319 546.405C543.675 546.387 545.028 546.369 546.381 546.354Z" fill="#FDB7B2"/>
<path fill-rule="evenodd" clip-rule="evenodd" d="M589.229 547.596C588.39 547.479 587.544 547.359 586.701 547.239C587.544 547.359 588.39 547.479 589.229 547.596Z" fill="#FDB7B2"/>
<path fill-rule="evenodd" clip-rule="evenodd" d="M541.803 546.42C541.437 546.405 541.074 546.393 540.711 546.378C541.074 546.393 541.437 546.405 541.803 546.42Z" fill="#FDB7B2"/>
<path fill-rule="evenodd" clip-rule="evenodd" d="M558.264 546.15C558.054 546.165 557.841 546.18 557.631 546.192C557.841 546.18 558.054 546.165 558.264 546.15Z" fill="#FDB7B2"/>
<path fill-rule="evenodd" clip-rule="evenodd" d="M471.411 34.2492C471.417 34.2342 471.42 34.2282 471.429 34.2162L471.411 34.2492Z" fill="#416A36"/>
<path fill-rule="evenodd" clip-rule="evenodd" d="M578.667 434.037C578.661 433.962 578.664 433.998 578.667 434.037C578.637 434.001 578.613 433.965 578.667 434.037Z" fill="#416A36"/>
<path fill-rule="evenodd" clip-rule="evenodd" d="M360.258 157.827C360.249 157.836 360.243 157.857 360.225 157.854L360.258 157.827Z" fill="#416A36"/>
<path fill-rule="evenodd" clip-rule="evenodd" d="M347.883 413.664C349.083 413.112 351.66 409.326 348.75 410.265C347.625 411.063 346.503 413.109 347.883 413.664ZM351.255 409.713C362.292 398.403 389.274 382.509 397.482 379.395C380.391 388.914 362.853 387.609 347.85 389.475C383.088 386.067 356.604 398.766 351.255 409.713ZM355.437 423.501C355.746 418.65 361.509 410.988 359.964 407.565C358.629 411.564 353.319 418.947 355.437 423.501ZM366.138 416.871C370.818 420.705 374.583 409.143 373.311 405.726C369.087 401.346 363.825 413.1 366.138 416.871ZM379.272 418.755C381.852 411.801 382.797 402.894 385.947 395.571C381.321 400.785 378.447 411.849 379.272 418.755ZM388.371 416.592C395.169 428.907 403.5 402.615 400.464 396.048C390.57 392.097 387.084 409.26 388.371 416.592ZM514.527 414.879C572.571 579.444 487.56 199.425 448.668 185.607C449.667 195.498 444.537 206.934 440.955 215.346C441.027 208.026 430.902 189.243 434.898 206.016C441.168 272.964 502.119 339.48 514.527 414.879ZM526.932 465.423C533.208 481.851 532.737 553.497 541.998 508.233C547.113 496.968 523.857 447.285 526.932 465.423ZM543.216 465.549C547.455 520.293 561.93 380.052 552.252 367.797C548.028 370.653 530.289 385.776 534.3 371.964C508.809 318.804 542.82 440.394 543.216 465.549ZM549.918 502.659C569.898 600.711 575.727 388.791 576.789 346.614C542.643 380.172 565.911 453.975 549.918 502.659ZM557.526 340.539C557.196 344.691 562.056 354.039 565.731 348.099C566.535 344.856 559.533 336.837 557.526 340.539ZM576.807 341.799C579.705 334.041 556.317 313.314 558.468 326.394C565.728 328.599 574.764 341.415 576.807 341.799ZM576.024 310.008C574.875 307.497 565.629 302.946 565.284 307.968C569.124 313.539 578.946 322.383 576.024 310.008ZM575.313 291.954C573.708 288.759 565.299 285.552 562.377 289.587C562.947 292.629 577.251 297.519 575.313 291.954ZM512.916 321.204C513.057 328.059 525.885 325.107 526.095 319.221C524.625 315.645 514.509 318.498 512.916 321.204ZM514.422 307.104C518.553 306.615 536.763 310.074 529.311 302.208C524.079 296.31 500.523 303.519 514.422 307.104ZM573.435 263.394C563.388 224.97 580.821 130.452 527.838 189.777C504.546 209.868 513.516 241.71 493.278 197.298C488.193 186.3 477.018 178.143 471.546 168.948C473.868 161.934 506.139 136.716 487.482 141.417C463.821 164.676 480.147 169.857 457.494 161.448C452.694 202.953 495.765 243.813 502.452 287.883C503.142 294.48 507.729 286.125 511.656 287.178C519.984 282.471 528.441 292.797 536.349 287.868C534.015 277.134 512.514 283.461 504.858 287.373C513.705 271.923 529.503 252.828 545.907 270.309C566.667 257.808 575.421 273.171 573.435 263.394ZM563.565 139.407C561.888 136.812 559.632 133.623 556.5 132.513C558.027 134.607 561.702 140.109 563.565 139.407ZM545.406 168.531C550.659 173.793 538.497 151.674 531.882 151.47C536.535 156.399 542.85 161.688 545.406 168.531ZM553.626 147.654C549.504 137.715 531.45 119.622 522.036 130.167C528.627 134.544 560.292 164.814 553.626 147.654ZM549.885 126.87C546.399 125.022 542.673 120.585 539.181 120.117C540.48 122.73 554.847 133.479 549.885 126.87ZM537.036 118.248C531.138 114.465 523.674 111.438 519.189 107.526C522.225 111.261 534.312 120.36 537.036 118.248ZM517.446 139.101C511.587 135.354 517.809 141.684 521.067 143.346C521.625 141.408 518.619 140.37 517.446 139.101ZM517.665 106.212C515.718 104.679 514.269 102.051 511.902 101.325C510.732 103.068 519.441 109.14 517.665 106.212ZM506.484 128.688C503.496 128.229 511.305 135.576 513.105 137.172C514.884 134.961 507.888 131.349 506.484 128.688ZM512.847 174.306C511.032 172.353 507.348 169.494 504.759 166.701C505.032 169.824 512.568 175.728 512.847 174.306ZM528.309 147.615C526.437 146.361 524.817 144.681 522.795 143.688C519.027 142.974 532.581 153.144 528.309 147.615ZM530.7 150.522C529.644 151.191 531.834 151.356 531.633 150.627C531.315 150.558 530.952 150.627 530.7 150.522ZM514.191 176.28C517.638 178.194 518.523 182.823 521.82 184.386C521.715 181.98 515.682 173.694 514.191 176.28ZM517.323 163.842C522.858 174.321 537.597 172.773 526.8 161.184C519.171 151.464 501.423 152.142 517.323 163.842ZM510.531 98.8263C508.683 97.2333 502.833 86.3883 505.005 90.9513C504.3 92.9703 510.195 102.381 510.531 98.8263ZM507.309 49.2453C506.505 47.6073 506.406 50.7723 506.457 51.5673C507.3 51.1203 507.783 50.1543 507.309 49.2453ZM505.692 53.5173C505.947 53.8533 506.151 53.4753 506.379 53.3043C506.22 52.7913 505.902 53.2773 505.692 53.5173ZM504.057 62.4483C503.496 65.0103 504.027 69.2373 503.196 70.6563C505.719 69.6573 506.061 62.9343 504.057 62.4483ZM504.54 60.5523C504.303 60.6723 504.405 60.8463 504.414 61.0473C504.711 60.9693 504.591 60.7953 504.54 60.5523ZM504.207 61.6143C504.147 61.7343 504.057 61.8543 504.195 61.9383C504.24 61.8183 504.363 61.7073 504.207 61.6143ZM498.438 159.966C498.519 162.258 497.931 164.685 498.831 166.842C501.486 163.623 499.257 149.997 498.438 159.966ZM498.408 137.787C499.512 144.075 497.13 149.58 499.716 154.743C499.992 150.78 500.631 128.835 498.408 137.787ZM499.395 128.769C499.257 131.814 501.243 126.507 500.478 125.331C499.563 122.949 497.952 127.818 499.395 128.769ZM501.531 93.1923C501.195 99.5523 497.367 121.071 500.742 122.1C500.688 113.229 503.625 102.435 501.531 93.1923ZM502.275 90.9363C502.407 91.0923 502.617 91.7433 502.617 91.2123C502.698 90.8673 502.5 90.8013 502.275 90.9363ZM502.56 86.6223C502.224 87.1743 501.567 87.9603 502.5 88.1973C503.334 87.8403 503.229 87.0873 502.56 86.6223ZM501.99 86.0793C502.512 86.3013 502.62 86.4033 502.887 85.9743C502.506 85.6713 502.419 85.6863 501.99 86.0793ZM502.965 83.8473C502.188 85.2903 503.7 80.1513 502.761 80.2083C503.643 80.4783 500.802 82.7373 502.965 83.8473ZM498.309 178.107C499.425 188.835 497.934 198.582 501.33 208.992C500.847 201.27 499.203 159.555 498.309 178.107ZM502.164 71.8083C493.545 87.4953 478.152 93.9693 463.314 101.052C478.092 98.7873 502.746 80.1903 502.164 71.8083ZM502.071 54.2223C501.468 54.9693 500.547 55.6473 499.872 56.0823C500.622 55.9023 503.136 53.4603 502.071 54.2223ZM498.744 57.1293C494.343 60.0093 487.569 63.9393 483.447 64.5273C486.447 66.9813 500.457 58.7103 498.744 57.1293ZM479.082 64.5003C478.068 64.5243 478.806 65.6373 479.265 65.7213C480.609 65.3673 480.333 64.7973 479.082 64.5003ZM477.963 65.2803C477.453 63.9303 475.713 64.8303 474.576 65.0133C475.242 66.4083 477.948 67.1763 477.963 65.2803ZM473.703 64.9563C472.791 65.9793 473.637 66.0753 474.414 65.5443C474.831 65.8353 473.988 65.2443 473.703 64.9563ZM471.828 75.8433C460.59 75.9573 426.312 94.7013 435.324 99.6063C444.954 83.1213 464.544 88.8513 479.322 81.9213C494.262 72.9693 482.244 72.1713 471.828 75.8433ZM466.833 64.7283C459.972 65.6373 452.844 64.4193 447.246 67.4133C448.755 65.6853 469.197 68.3343 466.833 64.7283ZM463.734 148.092C459.828 150.852 478.329 135.87 483.528 132.888C476.028 135.528 467.388 141.693 463.734 148.092ZM461.202 152.496C461.709 153.087 462.051 153.087 462.105 152.223C461.886 151.884 461.499 152.397 461.202 152.496ZM456.597 135.684C464.538 126.057 477.135 119.244 487.053 110.916C488.922 91.6833 456.801 126.45 456.597 135.684ZM452.628 106.785C472.692 92.0553 438.477 111.885 440.022 126.051C439.311 134.403 445.878 109.065 452.628 106.785ZM452.223 146.013C453.528 143.877 455.703 140.184 456.012 137.286C453.162 138.048 451.881 144.909 452.223 146.013ZM430.14 115.371C412.947 121.029 438.009 145.866 447.771 146.769C439.731 139.335 438.132 118.437 430.14 115.371ZM430.446 154.896C429.126 153.972 425.442 148.728 425.061 150.609C425.532 152.196 430.077 156.822 430.446 154.896ZM420.588 156.321C399.534 146.241 425.484 174.855 428.832 181.734C435.045 178.383 423.456 162.228 420.588 156.321ZM414.843 176.322C416.976 179.334 421.197 189.186 421.41 188.541C421.467 185.991 414.252 171.381 414.843 176.322ZM431.334 158.13C434.289 161.433 436.668 166.152 440.007 168.609C440.319 165.963 431.556 154.353 431.334 158.13ZM581.493 319.332C585.135 322.308 583.23 312.522 581.127 315.279C581.262 316.761 581.376 318.045 581.493 319.332ZM567.075 146.286C567.273 147.402 569.427 149.667 569.433 147.645C567.714 144.039 563.01 139.875 567.075 146.286ZM533.838 77.3433C536.85 77.3433 540.072 78.7083 542.769 78.1323C543.285 77.4633 531.663 75.3033 533.838 77.3433ZM545.622 78.9843C547.116 78.9933 553.797 81.1443 551.988 78.9483C550.527 79.0263 544.959 77.4453 545.622 78.9843ZM408.924 112.053C407.154 112.725 406.335 117.453 406.521 119.637C408.357 118.455 408.567 114.141 408.924 112.053ZM402.828 177.639C383.694 157.623 400.362 192.066 405.597 200.283C412.92 195.435 406.572 183.447 402.828 177.639ZM402.267 130.17C401.832 130.62 402.045 130.794 402.621 130.854C403.005 130.605 402.453 130.392 402.267 130.17ZM401.499 132.375C401.952 133.188 402.174 133.68 402.657 132.768C402.255 132.525 402 132.006 401.499 132.375ZM399.591 135.984C400.128 136.392 400.332 136.578 400.755 136.029C400.281 135.621 400.107 135.303 399.591 135.984ZM400.665 115.764C398.166 116.43 395.343 116.142 393.03 117.258C394.425 118.413 402.645 117.015 400.665 115.764ZM400.254 102.729C385.89 82.0683 346.533 111.75 386.736 103.149C390.987 103.488 401.598 111.492 400.254 102.729ZM390.735 149.673C382.071 158.346 355.338 219.465 367.05 197.187C370.029 183.216 409.167 123.462 390.735 149.673ZM364.845 178.161C359.523 175.092 352.413 183.174 354.48 187.218C357.726 188.985 372.078 181.413 364.845 178.161ZM359.595 220.527C362.082 220.5 361.452 211.059 362.229 211.101C360.084 212.613 360.192 217.659 359.595 220.527ZM376.059 200.22C378.066 212.739 386.625 203.34 381.978 195.321C378.585 185.916 372.882 193.875 376.059 200.22ZM403.632 238.956C398.676 235.188 387.6 247.518 390.618 252.507C396.714 255.585 404.04 244.164 403.632 238.956ZM388.113 247.455C388.029 247.47 387.951 247.509 387.87 247.539C387.957 247.704 388.368 247.512 388.113 247.455ZM331.731 422.4C337.518 404.871 342.153 373.608 362.547 370.845C367.062 372.243 378.474 381.66 378.405 371.733C352.104 354.891 379.734 353.058 392.823 369.351C403.653 381.336 383.157 355.542 374.013 355.539C379.335 349.629 394.62 346.296 402.093 349.665C407.646 353.619 408.885 360.15 412.488 365.01C413.796 362.334 407.436 355.128 405.849 351.258C403.59 345.279 430.695 364.044 423.45 375.054C435.981 383.121 469.62 385.173 485.187 402.306C552.021 478.956 455.625 266.991 428.586 236.445C412.644 250.986 407.253 276.849 405.471 297.033C385.953 282.798 374.919 227.562 409.704 220.59C423.414 211.428 398.019 214.956 392.982 219.243C390.669 219.054 396.879 204.243 392.499 208.206C395.037 217.866 372.369 213.144 365.43 220.182C359.997 221.997 355.659 233.442 355.074 223.263C354.336 213.108 347.406 201.018 359.814 196.737C343.374 203.778 344.724 172.998 361.251 169.932C350.28 176.76 335.475 181.734 350.25 161.925C357.897 155.436 370.812 159.711 377.139 151.803C369.828 146.139 351.225 158.853 342.528 163.944C336.618 152.19 358.26 143.748 367.542 140.193C357.897 140.415 348.222 148.062 341.667 155.217C333.351 141.417 352.512 133.68 365.319 131.934C422.265 125.616 365.196 117.066 342.186 136.497C343.752 116.49 412.53 114.396 355.845 121.479C322.254 145.212 368.112 72.8133 392.802 85.4463C413.775 98.1783 399.228 108.633 428.679 101.397C428.007 85.4103 432.924 70.0803 444.96 66.9573C413.028 77.3463 457.38 19.1583 483.495 36.0873C487.485 35.9373 506.625 45.0213 496.776 36.6843C467.082 20.0943 420.336 46.6803 475.62 13.3563C491.889 7.6023 500.049 33.2073 514.866 30.6963C533.037 6.7413 564.45 3.8733 579.843 33.4593C619.086 116.76 582.507 47.7333 546.861 49.7163C520.677 58.1433 573.996 60.0153 581.184 68.1753C620.724 102.804 578.919 81.1983 556.947 80.5833C589.308 81.8253 610.98 100.41 591.381 127.734C582.285 112.362 546.84 77.5353 532.911 97.3323C552.156 107.586 583.821 112.332 590.241 135.594C584.178 148.014 573.114 155.712 564.804 163.881C578.028 207.993 568.791 259.329 592.233 297.762C601.392 318.258 574.872 284.022 582.885 299.079C601.944 308.208 572.253 387.138 579.735 420.414C578.088 449.955 565.035 613.617 549.705 519.393C547.137 521.829 556.368 552.042 545.886 544.065C544.77 538.065 545.871 512.43 541.38 527.841C538.764 534.435 535.635 559.026 530.334 544.125C533.28 483.609 517.596 413.196 454.977 390.009C418.155 376.308 438.477 387.138 431.847 411.162C418.164 433.659 400.893 427.782 410.46 401.655C410.364 396.753 419.307 377.331 412.536 387.942C406.74 400.557 407.361 415.386 405.471 428.205C397.806 428.643 375.021 434.202 379.116 421.758C377.121 429.738 366.906 427.014 356.337 425.763C342.021 422.199 338.868 426.6 344.484 414.456C341.262 417.003 333.432 428.337 331.731 422.4Z" fill="#416A36"/>
<path fill-rule="evenodd" clip-rule="evenodd" d="M530.508 150.537C530.517 150.537 530.511 150.537 530.508 150.537C530.511 150.534 530.517 150.534 530.508 150.537Z" fill="#416A36"/>
<path fill-rule="evenodd" clip-rule="evenodd" d="M392.88 348.879C392.871 348.864 392.892 348.861 392.904 348.855L392.88 348.879Z" fill="#416A36"/>
<path fill-rule="evenodd" clip-rule="evenodd" d="M639.973 171.356C639.985 171.347 639.982 171.347 639.973 171.356C639.964 171.335 639.976 171.332 639.973 171.356Z" fill="#416A36"/>
<path fill-rule="evenodd" clip-rule="evenodd" d="M640 171.341C639.991 171.347 639.982 171.347 639.973 171.356C639.973 171.356 640.006 171.332 640 171.341Z" fill="#416A36"/>
<path fill-rule="evenodd" clip-rule="evenodd" d="M588.216 450.096C588.36 450.048 588.477 449.919 588.663 449.784C588.306 449.247 587.631 450.117 588.216 450.096ZM671.765 319.644C672.044 319.737 672.65 319.479 672.509 319.17C672.227 319.269 672.011 319.485 671.765 319.644ZM655.718 325.065C660.059 324.405 666.785 322.284 671.351 319.965C666.116 321.078 660.422 322.47 655.718 325.065ZM644.819 333.81C645.704 335.286 650.588 330.156 651.308 328.671C649.127 328.167 646.934 332.457 644.819 333.81ZM646.562 324.261C653.642 320.082 665.399 318.213 672.407 313.656C668.399 304.767 646.61 314.79 646.562 324.261ZM589.457 477.39C607.919 432.894 629.309 386.118 661.322 350.397C653.876 348.969 642.749 375.915 641.387 363.552C638.693 344.976 700.892 320.274 656.783 338.085C645.587 348.357 631.754 366.687 641.75 339.882C641.192 334.956 637.991 348.18 637.247 344.598C628.289 285.159 685.901 315.069 691.178 288.075C683.714 280.866 668.849 282.903 672.185 268.665C674.885 256.916 687.662 228.413 671.309 254.471C675.389 287.451 651.656 294.27 657.56 257.636C663.608 243.374 683.204 218.393 662.258 244.832C651.065 254.909 655.397 271.11 655.376 281.919C613.028 279.57 601.322 432.516 589.457 477.39ZM662.18 366.558C669.89 367.767 677.858 357.867 682.115 352.497C678.752 345.474 659.243 360.819 662.18 366.558ZM668.777 374.766C672.614 368.604 677.732 364.563 682.886 360.546C677.585 361.836 668.981 368.895 668.777 374.766ZM686.15 312.228C687.176 313.476 689.867 320.679 690.08 316.782C686.873 311.658 678.806 301.377 686.15 312.228ZM686.171 358.992C687.83 358.344 693.437 352.995 690.176 354.252C689.12 355.293 682.55 358.926 686.171 358.992ZM693.329 311.262C705.356 318.825 733.787 312.432 706.406 306.909C704.186 305.625 688.94 305.376 693.329 311.262ZM699.509 341.301C703.931 353.754 704.063 385.791 705.059 358.419C729.818 376.368 696.875 350.499 699.509 341.301ZM702.425 406.632C703.457 405.993 704.375 405.267 702.95 404.502C702.833 405.207 701.996 406.083 702.425 406.632ZM706.799 379.896C707.861 381.774 712.568 389.661 713.54 386.154C713.306 385.482 706.94 378.03 706.799 379.896ZM717.158 382.875C724.07 391.389 720.938 374.592 715.322 373.302C705.977 370.659 714.317 379.956 717.158 382.875ZM704.396 273.942C701.213 269.043 701.126 252.05 695.477 251.879C698.822 257.303 706.139 290.535 704.396 273.942ZM704.153 229.265C706.004 228.134 709.79 231.536 711.371 229.064C709.346 227.189 697.781 226.274 704.153 229.265ZM697.133 227.237C697.154 227.306 697.229 227.36 697.298 227.441C697.451 227.222 697.19 226.949 697.133 227.237ZM716.552 223.658C742.778 228.512 725.291 211.499 709.703 213.089C686.102 214.43 703.334 223.34 716.552 223.658ZM692.654 264.428C687.071 255.782 684.299 274.851 686.633 279.297C693.467 284.997 694.397 268.101 692.654 264.428ZM692.684 238.961C689.27 235.553 687.677 223.067 684.482 224.054C682.91 227.843 698.258 254.312 692.684 238.961ZM685.958 201.599C685.904 201.56 685.76 201.659 685.577 201.728C685.826 202.196 686.273 201.968 685.958 201.599ZM683.939 201.53C683.153 202.49 683.627 203.069 684.155 203.954C685.139 202.976 684.968 202.529 683.939 201.53ZM683.099 221.099C680.822 218.255 672.941 202.436 672.482 208.496C674.882 209.897 682.07 228.71 683.099 221.099ZM656.861 199.925C655.694 204.269 652.157 210.533 652.688 212.936C652.937 214.058 658.718 203.162 656.861 199.925ZM648.5 234.407C644.153 241.415 633.497 262.658 639.962 266.153C638.897 258.314 671.177 218.075 648.5 234.407ZM645.53 222.254C644.414 223.94 639.416 226.73 641.339 228.14C642.614 227.234 647.471 222.26 645.53 222.254ZM635.087 174.161C631.646 196.313 606.335 211.862 604.154 233.342C611.339 211.913 632.138 196.31 635.087 174.161ZM570.528 549.648C588.699 457.674 596.096 365.874 632.408 280.155C613.721 270.126 628.49 246.248 637.901 233.03C627.056 240.293 620.831 259.205 621.437 272.703C597.089 254.696 631.634 234.077 638.684 216.983C634.583 195.281 609.521 237.917 611.123 248.507C608.006 283.437 605.318 245.285 603.326 234.479C602.87 289.509 584.232 213.221 614.048 199.904C610.052 172.58 590.984 241.334 593.057 247.331C574.254 219.644 586.986 160.541 625.379 160.988C642.017 169.283 658.544 196.472 670.403 202.583C670.388 195.959 641.984 181.283 663.551 182.327C679.361 178.658 689.003 172.148 666.146 180.29C599.666 175.679 640.277 105.881 695.495 140.18C741.161 173.012 665.447 142.547 658.199 173.483C675.218 175.469 694.559 154.496 714.014 161.213C741.926 179.111 691.727 162.029 689.225 173.813C713.642 157.658 756.281 196.28 710.477 183.812C705.095 183.128 698.78 182.78 693.074 184.733C650.549 211.169 720.38 181.43 731.705 193.895C742.412 207.413 727.028 194.411 720.68 197.369C711.311 197.63 689.783 197.027 687.557 204.032C708.899 197.999 744.743 191.459 737.894 226.634C739.925 250.961 728.027 226.568 714.104 229.775C724.685 233.027 742.367 242.702 733.301 255.425C727.502 248.966 713.975 237.653 705.605 243.923C713.522 250.865 744.902 258.548 725.51 273.129C721.679 259.733 688.841 248.351 714.41 261.761C733.904 272.061 716.801 285.48 715.286 297.588C729.518 310.2 746.111 353.676 715.661 332.427C687.092 330.909 741.26 337.284 731.996 352.122C722.447 342.159 735.926 358.095 730.628 365.466C727.928 366.396 724.019 357.786 719.855 356.565C693.242 350.673 736.598 364.554 727.856 373.803C713.585 359.859 724.973 369.252 726.44 379.308C718.493 401.364 717.632 390.261 715.187 393.741C717.281 401.373 704.426 418.092 698.108 418.299C686.069 409.167 701.594 393.372 696.908 389.847C689.105 394.026 691.934 412.074 682.478 399.501C683.993 389.418 691.028 381.942 696.842 374.154C686.393 385.356 667.205 415.068 680.072 380.997C697.709 364.467 688.325 361.59 677.642 380.433C672.089 401.517 660.578 386.835 648.341 377.043C612.182 424.533 583.935 486.912 580.68 548.697C580.242 560.445 575.532 548.199 574.968 549.036C574.917 553.317 567.27 553.419 570.528 549.648Z" fill="#416A36"/>
<path fill-rule="evenodd" clip-rule="evenodd" d="M705.043 255.696C705.085 255.72 705.064 255.708 705.043 255.696C705.064 255.705 705.082 255.72 705.043 255.696Z" fill="#416A36"/>
<path fill-rule="evenodd" clip-rule="evenodd" d="M705.129 255.722C705.114 255.728 705.12 255.725 705.129 255.722C705.159 255.752 705.138 255.746 705.129 255.722Z" fill="#416A36"/>
<path fill-rule="evenodd" clip-rule="evenodd" d="M603.323 234.476C603.425 234.488 603.554 234.488 603.656 234.5C603.545 234.491 603.434 234.482 603.323 234.476Z" fill="#416A36"/>
<path fill-rule="evenodd" clip-rule="evenodd" d="M637.331 337.809C637.328 337.812 637.331 337.812 637.331 337.809C637.34 337.815 637.334 337.815 637.331 337.809Z" fill="#416A36"/>
<path fill-rule="evenodd" clip-rule="evenodd" d="M705.047 255.696C705.074 255.705 705.098 255.696 705.128 255.723C705.098 255.744 705.074 255.708 705.047 255.696Z" fill="#416A36"/>
<path fill-rule="evenodd" clip-rule="evenodd" d="M341.805 132.511C341.175 131.839 341.34 131.653 341.856 131.11C342.498 131.605 342.246 131.848 341.805 132.511Z" fill="#416A36"/>
<path fill-rule="evenodd" clip-rule="evenodd" d="M342.111 128.644C342.306 127.897 342.453 127.984 342.579 128.647C342.474 129.193 342.258 129.172 342.111 128.644Z" fill="#416A36"/>
<path fill-rule="evenodd" clip-rule="evenodd" d="M359.997 157.402C359.874 157.489 359.934 157.447 359.997 157.402C360.237 157.789 360.138 157.789 359.997 157.402Z" fill="#416A36"/>
<path fill-rule="evenodd" clip-rule="evenodd" d="M360.189 157.783C360.213 157.798 360.234 157.813 360.255 157.828C360.219 157.876 360.207 157.816 360.189 157.783Z" fill="#416A36"/>
<path fill-rule="evenodd" clip-rule="evenodd" d="M699.169 201.227C698.68 201.047 698.758 200.615 699.262 200.693C699.541 200.81 699.616 201.341 699.169 201.227Z" fill="#416A36"/>
<path fill-rule="evenodd" clip-rule="evenodd" d="M699.167 201.227C699.251 201.227 699.341 201.227 699.425 201.224C699.341 201.344 699.263 201.287 699.167 201.227Z" fill="#416A36"/>
<path fill-rule="evenodd" clip-rule="evenodd" d="M355.719 227.448C355.71 227.466 355.671 227.466 355.656 227.46L355.719 227.448Z" fill="#416A36"/>
<path fill-rule="evenodd" clip-rule="evenodd" d="M692.612 202.915C692.762 202.924 692.912 202.933 693.059 202.939C692.789 203.239 692.741 203.335 692.612 202.915Z" fill="#416A36"/>
<path fill-rule="evenodd" clip-rule="evenodd" d="M735.762 201.2C735.747 200.966 735.756 201.083 735.762 201.2C735.456 201.044 735.558 201.083 735.762 201.2Z" fill="#416A36"/>
<path fill-rule="evenodd" clip-rule="evenodd" d="M724.281 199.202C724.311 199.187 724.347 199.148 724.365 199.157C724.584 199.244 724.23 199.376 724.281 199.202Z" fill="#416A36"/>
<path fill-rule="evenodd" clip-rule="evenodd" d="M374.508 356.016C374.454 356.019 374.403 356.022 374.349 356.022C374.364 355.902 374.478 355.905 374.508 356.016Z" fill="#416A36"/>
<path fill-rule="evenodd" clip-rule="evenodd" d="M667.433 172.405C667.379 172.468 667.406 172.435 667.433 172.405C667.601 172.48 667.382 172.669 667.433 172.405Z" fill="#416A36"/>
<path fill-rule="evenodd" clip-rule="evenodd" d="M589.966 127.484C590.089 127.502 590.029 127.493 589.966 127.484C590.071 127.358 590.152 127.301 589.966 127.484Z" fill="#416A36"/>
<path fill-rule="evenodd" clip-rule="evenodd" d="M590.134 127.323C590.119 127.344 590.122 127.314 590.119 127.299L590.134 127.323Z" fill="#416A36"/>
<path fill-rule="evenodd" clip-rule="evenodd" d="M590.419 127.285C590.371 127.15 590.395 127.219 590.419 127.285C590.137 127.339 590.158 127.249 590.419 127.285Z" fill="#416A36"/>
<path fill-rule="evenodd" clip-rule="evenodd" d="M590.155 127.299C590.131 127.299 590.143 127.299 590.155 127.299C590.143 127.32 590.128 127.326 590.155 127.299Z" fill="#416A36"/>
<path fill-rule="evenodd" clip-rule="evenodd" d="M710.22 407.721L710.193 407.673C710.214 407.676 710.22 407.706 710.22 407.721Z" fill="#416A36"/>
<path fill-rule="evenodd" clip-rule="evenodd" d="M575.418 83.8782C575.535 83.9442 575.481 84.0462 575.418 84.1422C575.283 84.0642 575.367 83.9772 575.418 83.8782Z" fill="#416A36"/>
<path fill-rule="evenodd" clip-rule="evenodd" d="M485.481 144.11C485.454 144.11 485.43 144.11 485.406 144.107C485.421 144.062 485.454 144.098 485.481 144.11Z" fill="#416A36"/>
<path fill-rule="evenodd" clip-rule="evenodd" d="M485.523 144.133C485.442 144.1 485.541 144.115 485.58 144.115C485.559 144.121 485.538 144.139 485.523 144.133Z" fill="#416A36"/>
<path fill-rule="evenodd" clip-rule="evenodd" d="M434.256 198.409C434.361 198.493 434.466 198.583 434.571 198.667C434.361 198.712 434.343 198.517 434.256 198.409Z" fill="#416A36"/>
<path fill-rule="evenodd" clip-rule="evenodd" d="M434.256 198.409C434.343 198.517 434.361 198.712 434.571 198.667C434.241 198.853 434.136 198.772 434.256 198.409Z" fill="#416A36"/>
<path fill-rule="evenodd" clip-rule="evenodd" d="M396.186 180.886C396.237 180.811 396.294 180.808 396.354 180.874C396.3 180.958 396.249 180.961 396.186 180.886Z" fill="#416A36"/>
<path fill-rule="evenodd" clip-rule="evenodd" d="M396.657 142.244C396.852 142.292 396.888 141.995 397.086 142.043C396.945 142.109 396.801 142.178 396.657 142.244Z" fill="#416A36"/>
<path fill-rule="evenodd" clip-rule="evenodd" d="M397.083 142.041C396.888 141.993 396.852 142.29 396.654 142.242C396.66 141.87 396.795 141.786 397.083 142.041Z" fill="#416A36"/>
<path fill-rule="evenodd" clip-rule="evenodd" d="M441.888 120.101C441.954 119.774 442.056 119.729 442.347 119.963C442.179 120.164 442.041 120.383 441.888 120.101Z" fill="#416A36"/>
<path fill-rule="evenodd" clip-rule="evenodd" d="M498.321 177.898C498.321 178.003 498.318 178.057 498.204 177.979C498.252 177.949 498.279 177.928 498.321 177.898Z" fill="#416A36"/>
<path fill-rule="evenodd" clip-rule="evenodd" d="M498.936 177.532C499.653 177.676 498.918 178.63 498.312 178.03C498.339 177.742 498.786 177.622 498.936 177.532Z" fill="#416A36"/>
<path fill-rule="evenodd" clip-rule="evenodd" d="M500.901 201.453C500.772 201.831 500.637 201.93 500.328 201.555C500.538 201.261 500.778 201.078 500.901 201.453Z" fill="#416A36"/>
<path fill-rule="evenodd" clip-rule="evenodd" d="M500.253 201.699C500.157 201.852 500.109 201.738 500.07 201.615C500.136 201.465 500.208 201.6 500.253 201.699Z" fill="#416A36"/>
<path fill-rule="evenodd" clip-rule="evenodd" d="M499.359 149.746C499.197 149.587 499.149 149.413 499.371 149.272C499.443 149.434 499.428 149.587 499.359 149.746Z" fill="#416A36"/>
<path fill-rule="evenodd" clip-rule="evenodd" d="M530.508 150.526C530.508 150.532 530.508 150.529 530.508 150.526C530.514 150.532 530.52 150.538 530.508 150.526Z" fill="#416A36"/>
<path fill-rule="evenodd" clip-rule="evenodd" d="M530.517 150.535C530.571 150.547 530.712 150.487 530.694 150.553C530.634 150.547 530.577 150.547 530.517 150.535Z" fill="#416A36"/>
<path fill-rule="evenodd" clip-rule="evenodd" d="M530.502 150.537L530.508 150.525C530.508 150.531 530.508 150.537 530.502 150.537Z" fill="#416A36"/>
<path fill-rule="evenodd" clip-rule="evenodd" d="M530.52 150.537C530.604 150.639 530.562 150.591 530.52 150.537C530.649 150.531 530.724 150.558 530.52 150.537Z" fill="#416A36"/>
<path fill-rule="evenodd" clip-rule="evenodd" d="M474.069 65.4711L474.153 65.5131C474.138 65.5581 474.084 65.4771 474.069 65.4711Z" fill="#416A36"/>
<path fill-rule="evenodd" clip-rule="evenodd" d="M637.075 337.545C637.144 337.554 637.255 337.731 637.339 337.797C637.237 337.749 637.165 337.623 637.075 337.545Z" fill="#416A36"/>
<path fill-rule="evenodd" clip-rule="evenodd" d="M637.077 337.545C637.053 337.596 637.092 337.647 637.071 337.647C637.077 337.65 637.044 337.491 637.077 337.545Z" fill="#416A36"/>
<path fill-rule="evenodd" clip-rule="evenodd" d="M637.203 337.791C637.239 337.809 637.308 337.776 637.329 337.815C637.296 337.809 637.203 337.821 637.203 337.791Z" fill="#416A36"/>
<path fill-rule="evenodd" clip-rule="evenodd" d="M637.076 337.653C637.073 337.797 637.217 337.809 637.328 337.815C636.884 338.925 636.281 337.518 637.076 337.653Z" fill="#416A36"/>
<path fill-rule="evenodd" clip-rule="evenodd" d="M637.315 337.794C637.327 337.806 637.321 337.8 637.315 337.794C637.333 337.794 637.345 337.794 637.315 337.794Z" fill="#416A36"/>
<path fill-rule="evenodd" clip-rule="evenodd" d="M637.063 337.533C637.066 337.53 637.072 337.527 637.075 337.521C637.075 337.539 637.078 337.551 637.063 337.533Z" fill="#416A36"/>
<path fill-rule="evenodd" clip-rule="evenodd" d="M637.075 337.653C637.033 337.431 637.237 337.734 637.315 337.794C637.204 337.812 637.102 337.767 637.075 337.653Z" fill="#416A36"/>
<path fill-rule="evenodd" clip-rule="evenodd" d="M637.077 337.653C637.092 337.725 637.14 337.767 637.203 337.791C637.119 337.785 637.08 337.737 637.077 337.653Z" fill="#416A36"/>
<path fill-rule="evenodd" clip-rule="evenodd" d="M654.632 271.059C654.701 271.011 654.779 270.942 654.803 271.065C654.737 271.155 654.695 271.155 654.632 271.059Z" fill="#416A36"/>
<path fill-rule="evenodd" clip-rule="evenodd" d="M643.14 368.46C643.224 368.364 643.311 368.271 643.392 368.175C643.428 368.376 643.269 368.403 643.14 368.46Z" fill="#416A36"/>
<path fill-rule="evenodd" clip-rule="evenodd" d="M643.139 368.46C643.268 368.403 643.427 368.376 643.391 368.175C643.673 368.469 643.424 368.472 643.139 368.46Z" fill="#416A36"/>
<path fill-rule="evenodd" clip-rule="evenodd" d="M640.515 263.638C640.428 263.728 640.341 263.821 640.257 263.914C640.074 263.566 640.482 263.782 640.515 263.638Z" fill="#416A36"/>
<path fill-rule="evenodd" clip-rule="evenodd" d="M640.515 263.638C640.482 263.782 640.074 263.566 640.257 263.914C639.813 263.473 640.032 263.467 640.515 263.638Z" fill="#416A36"/>
<path fill-rule="evenodd" clip-rule="evenodd" d="M672.669 179.236C672.252 179.422 671.97 179.723 671.853 179.255C672.162 178.91 672.264 178.726 672.669 179.236Z" fill="#416A36"/>
<path fill-rule="evenodd" clip-rule="evenodd" d="M686.227 275.643C686.242 275.58 686.281 275.523 686.311 275.46C686.485 275.529 686.308 275.841 686.227 275.643Z" fill="#416A36"/>
<path fill-rule="evenodd" clip-rule="evenodd" d="M703.172 354.123C703.076 354.192 702.971 354.246 702.902 354.123C703.007 354.069 703.094 353.982 703.172 354.123Z" fill="#416A36"/>
<path fill-rule="evenodd" clip-rule="evenodd" d="M702.197 272.127C702.209 272.133 702.2 272.133 702.197 272.127C702.188 272.109 702.206 272.133 702.197 272.127Z" fill="#416A36"/>
<path fill-rule="evenodd" clip-rule="evenodd" d="M702.67 270.936C702.823 271.065 702.973 271.191 703.123 271.317C702.82 271.374 702.682 271.233 702.67 270.936Z" fill="#416A36"/>
<path fill-rule="evenodd" clip-rule="evenodd" d="M702.212 272.136C701.978 271.662 701.84 271.059 702.668 270.936C703.205 271.398 703.265 272.892 702.212 272.136Z" fill="#416A36"/>
<path fill-rule="evenodd" clip-rule="evenodd" d="M682.284 223.525C682.236 223.354 682.11 223.246 681.993 223.123C682.386 223.054 682.5 223.18 682.284 223.525Z" fill="#416A36"/>
<path fill-rule="evenodd" clip-rule="evenodd" d="M70.7991 339.534C47.1291 376.185 85.7802 462.243 146.287 500.448C206.791 538.65 274.962 536.028 298.632 499.38C322.305 462.732 292.443 402.054 231.94 363.852C171.437 325.653 94.473 302.886 70.7991 339.534Z" fill="#B28A64"/>
<path fill-rule="evenodd" clip-rule="evenodd" d="M334.41 630C335.448 630 336.432 629.703 337.275 629.121C340.932 626.595 345.492 623.448 310.839 556.884C294.459 525.417 276.792 494.28 276.618 493.965C275.559 492.108 273.198 491.454 271.323 492.504C269.46 493.563 268.803 495.927 269.862 497.79C297.564 546.576 325.47 600.588 330.969 618.654C317.895 603.663 283.692 547.236 254.025 493.992C252.984 492.132 250.629 491.442 248.745 492.492C246.873 493.53 246.198 495.891 247.239 497.763C268.818 536.487 320.382 626.883 333.129 629.853C333.564 629.949 333.99 630 334.41 630Z" fill="#3A332D"/>
<path fill-rule="evenodd" clip-rule="evenodd" d="M137.868 642C162.892 642 192.875 529.839 198.627 507.354C199.154 505.308 197.938 503.22 195.907 502.689C193.891 502.143 191.818 503.388 191.295 505.44C170.629 586.128 147.902 634.341 137.868 634.341C137.679 634.341 137.243 634.341 136.542 633.522C125.678 620.778 133.889 533.442 141.616 481.395C141.926 479.304 140.498 477.351 138.429 477.039C136.288 476.748 134.431 478.167 134.12 480.258C132.021 494.394 114.102 618.924 130.805 638.523C133.253 641.4 135.996 642 137.868 642Z" fill="#3A332D"/>
<path fill-rule="evenodd" clip-rule="evenodd" d="M40.6944 610.479C43.1541 610.479 48.2643 610.479 131.173 490.212C132.384 488.454 131.972 486.024 130.255 484.788C128.538 483.555 126.154 483.969 124.947 485.724C104.233 515.775 73.8861 558.876 55.2246 583.671C70.4403 555.414 98.1639 507.54 117.625 474.657C118.714 472.815 118.139 470.427 116.338 469.314C114.537 468.192 112.199 468.789 111.11 470.625C33.5055 601.755 35.7903 605.895 37.1571 608.37C37.8312 609.591 39.3198 610.479 40.6944 610.479Z" fill="#3A332D"/>
<path fill-rule="evenodd" clip-rule="evenodd" d="M69.3603 290.271C36.8025 341.259 75.0642 423.891 154.804 474.825C234.548 525.765 325.587 525.717 358.14 474.729C390.696 423.741 352.44 341.112 272.694 290.175C192.953 239.241 101.914 239.277 69.3603 290.271Z" fill="#EABD91"/>
<path fill-rule="evenodd" clip-rule="evenodd" d="M348.504 477C349.545 477 350.544 476.328 351.006 475.182C351.078 474.999 352.851 470.586 354.657 462.915C355.047 461.253 354.174 459.549 352.71 459.108C351.21 458.658 349.725 459.657 349.341 461.313C347.664 468.429 346.014 472.557 345.996 472.593C345.369 474.159 345.981 476.007 347.361 476.718C347.733 476.913 348.12 477 348.504 477Z" fill="#CB9A6E"/>
<path fill-rule="evenodd" clip-rule="evenodd" d="M138.644 264.498C138.733 264.498 138.826 264.495 138.919 264.486C146.34 263.784 153.897 263.622 162.23 264.087C163.825 264.18 165.197 262.947 165.286 261.339C165.374 259.725 164.154 258.354 162.554 258.264C154.237 257.802 146.139 257.949 138.378 258.681C136.786 258.831 135.616 260.253 135.762 261.855C135.905 263.367 137.165 264.498 138.644 264.498ZM208.987 272.919C210.215 272.919 211.355 272.127 211.749 270.885C212.232 269.352 211.39 267.711 209.864 267.225C202.083 264.738 194.225 262.731 186.51 261.249C184.942 260.934 183.424 261.984 183.122 263.565C182.821 265.146 183.849 266.673 185.421 266.973C192.912 268.41 200.546 270.366 208.11 272.784C208.404 272.877 208.697 272.919 208.987 272.919ZM252.486 291.996C253.503 291.996 254.493 291.456 255.027 290.496C255.798 289.089 255.291 287.313 253.893 286.533C246.753 282.552 239.511 278.934 232.367 275.787C230.911 275.142 229.196 275.811 228.55 277.287C227.905 278.76 228.574 280.476 230.042 281.121C237.023 284.199 244.104 287.733 251.082 291.63C251.529 291.879 252.012 291.996 252.486 291.996ZM292.017 318.471C292.869 318.471 293.715 318.096 294.285 317.367C295.281 316.104 295.071 314.274 293.82 313.275C291.039 311.052 288.144 308.841 285.135 306.645C281.613 304.071 277.992 301.533 274.383 299.106C273.051 298.218 271.251 298.578 270.366 299.916C269.478 301.251 269.838 303.063 271.17 303.957C274.716 306.339 278.271 308.826 281.733 311.361C284.676 313.509 287.499 315.669 290.211 317.838C290.748 318.267 291.384 318.471 292.017 318.471ZM325.599 352.14C326.217 352.14 326.841 351.942 327.369 351.531C328.635 350.544 328.863 348.714 327.882 347.442C323.115 341.247 317.724 335.148 311.85 329.307C310.707 328.176 308.871 328.182 307.752 329.328C306.627 330.471 306.636 332.319 307.776 333.45C313.464 339.111 318.687 345.021 323.304 351.009C323.874 351.753 324.732 352.14 325.599 352.14ZM348.261 393.909C348.57 393.909 348.885 393.858 349.188 393.753C350.706 393.24 351.519 391.584 351.006 390.06C348.462 382.494 345.162 374.991 341.208 367.746C340.434 366.336 338.673 365.817 337.272 366.597C335.868 367.374 335.358 369.147 336.126 370.557C339.924 377.496 343.08 384.69 345.519 391.926C345.924 393.144 347.052 393.909 348.261 393.909ZM354.657 441C356.181 441 357.459 439.8 357.546 438.252C357.678 435.924 357.75 433.509 357.75 431.013C357.75 425.28 357.357 419.502 356.583 413.832C356.364 412.239 354.933 411.093 353.316 411.342C351.732 411.564 350.622 413.031 350.841 414.63C351.579 420.03 351.954 425.544 351.954 431.013C351.954 433.395 351.882 435.699 351.759 437.919C351.669 439.527 352.89 440.907 354.486 440.997C354.543 441 354.597 441 354.657 441Z" fill="#CB9A6E"/>
<path fill-rule="evenodd" clip-rule="evenodd" d="M102.874 273C103.324 273 103.786 272.916 104.219 272.733C104.261 272.718 108.237 271.083 115.472 269.316C117.133 268.911 118.099 267.417 117.633 265.98C117.171 264.543 115.476 263.685 113.782 264.108C105.959 266.013 101.692 267.783 101.517 267.855C99.9645 268.503 99.315 270.117 100.056 271.464C100.593 272.433 101.713 273 102.874 273Z" fill="#CB9A6E"/>
<path fill-rule="evenodd" clip-rule="evenodd" d="M325.056 489C326.208 489 327.333 488.511 327.936 487.644C328.044 487.491 330.552 483.876 333.531 477.606C334.182 476.238 333.327 474.702 331.623 474.18C329.916 473.649 328.005 474.342 327.357 475.713C324.564 481.581 322.194 485.013 322.173 485.049C321.282 486.327 321.846 487.944 323.442 488.661C323.952 488.889 324.507 489 325.056 489Z" fill="#CB9A6E"/>
<path fill-rule="evenodd" clip-rule="evenodd" d="M123.649 286.923C123.811 286.923 123.974 286.911 124.136 286.881C131.711 285.606 139.581 284.901 147.527 284.778C149.13 284.754 150.407 283.44 150.384 281.847C150.357 280.263 149.064 279 147.481 279H147.438C139.201 279.132 131.03 279.864 123.169 281.187C121.589 281.448 120.521 282.945 120.792 284.514C121.028 285.924 122.259 286.923 123.649 286.923ZM194.898 290.532C196.191 290.532 197.375 289.665 197.708 288.36C198.103 286.815 197.166 285.24 195.614 284.847C187.648 282.828 179.616 281.31 171.739 280.335C170.09 280.149 168.693 281.265 168.499 282.843C168.302 284.43 169.428 285.873 171.019 286.068C178.66 287.01 186.452 288.483 194.178 290.442C194.418 290.505 194.662 290.532 194.898 290.532ZM239.636 307.296C240.705 307.296 241.73 306.711 242.241 305.694C242.953 304.263 242.369 302.532 240.933 301.818C233.563 298.173 226.1 294.912 218.742 292.14C217.267 291.57 215.568 292.323 215.003 293.82C214.434 295.311 215.185 296.979 216.686 297.543C223.863 300.246 231.148 303.429 238.347 306.996C238.762 307.2 239.203 307.296 239.636 307.296ZM280.422 332.154C281.301 332.154 282.177 331.758 282.75 331.005C283.713 329.73 283.452 327.918 282.171 326.961C279.042 324.615 275.697 322.26 272.244 319.959C268.827 317.691 265.44 315.54 262.092 313.5C260.718 312.657 258.933 313.095 258.096 314.454C257.265 315.819 257.691 317.598 259.056 318.429C262.347 320.427 265.662 322.542 269.019 324.765C272.382 327.003 275.634 329.295 278.682 331.578C279.204 331.965 279.819 332.154 280.422 332.154ZM314.226 365.661C314.817 365.661 315.414 365.481 315.93 365.115C317.226 364.173 317.517 362.367 316.575 361.077C311.955 354.744 306.588 348.564 300.624 342.711C299.487 341.598 297.639 341.598 296.517 342.741C295.392 343.878 295.407 345.708 296.547 346.827C302.286 352.458 307.44 358.395 311.874 364.47C312.441 365.25 313.329 365.661 314.226 365.661ZM334.059 408.663C334.272 408.663 334.491 408.642 334.704 408.594C336.27 408.243 337.248 406.701 336.897 405.141C335.109 397.242 332.445 389.469 328.992 382.047C328.317 380.595 326.589 379.98 325.137 380.643C323.682 381.312 323.052 383.031 323.721 384.477C327.006 391.53 329.532 398.91 331.233 406.41C331.536 407.754 332.736 408.663 334.059 408.663ZM334.806 456C336.18 456 337.404 455.022 337.659 453.63C339.045 446.052 339.75 438.408 339.75 430.908L339.738 429.36C339.714 427.779 338.418 426.516 336.834 426.516H336.792C335.187 426.537 333.909 427.851 333.933 429.447L333.945 430.908C333.945 438.06 333.27 445.359 331.947 452.595C331.656 454.167 332.706 455.664 334.281 455.958C334.458 455.985 334.632 456 334.806 456Z" fill="#CB9A6E"/>
<path fill-rule="evenodd" clip-rule="evenodd" d="M90.4029 297C90.8481 297 91.2969 296.892 91.7106 296.67C91.7424 296.652 95.0187 294.912 101.002 292.86C102.38 292.383 103.091 290.949 102.589 289.65C102.094 288.348 100.567 287.682 99.1926 288.15C92.7354 290.367 89.2296 292.242 89.0844 292.32C87.8157 293.007 87.3741 294.531 88.0986 295.734C88.5861 296.541 89.4804 297 90.4029 297Z" fill="#CB9A6E"/>
<path fill-rule="evenodd" clip-rule="evenodd" d="M304.047 495C305.211 495 306.336 494.499 306.936 493.617C307.041 493.47 309.492 489.843 312.522 483.63C313.185 482.262 312.354 480.72 310.659 480.18C308.97 479.652 307.053 480.315 306.381 481.683C303.528 487.551 301.182 491.031 301.155 491.067C300.285 492.351 300.864 493.968 302.463 494.67C302.964 494.898 303.51 495 304.047 495Z" fill="#CB9A6E"/>
<path fill-rule="evenodd" clip-rule="evenodd" d="M182.666 308.823C184.021 308.823 185.227 307.863 185.496 306.483C185.8 304.905 184.784 303.387 183.22 303.078C175.466 301.554 167.731 300.522 160.219 300.003C158.752 299.931 157.251 301.095 157.143 302.697C157.035 304.296 158.233 305.679 159.826 305.787C167.096 306.291 174.592 307.29 182.104 308.769C182.293 308.802 182.481 308.823 182.666 308.823ZM114.633 309.465C114.868 309.465 115.099 309.438 115.333 309.378C122.383 307.617 129.806 306.429 137.407 305.841C138.997 305.718 140.187 304.326 140.067 302.73C139.944 301.128 138.597 299.988 136.964 300.057C129.044 300.672 121.301 301.914 113.94 303.75C112.392 304.137 111.449 305.709 111.838 307.263C112.161 308.583 113.339 309.465 114.633 309.465ZM226.293 322.254C227.429 322.254 228.503 321.576 228.961 320.46C229.573 318.978 228.869 317.283 227.394 316.671C220.109 313.656 212.794 310.998 205.66 308.784C204.119 308.328 202.514 309.171 202.044 310.698C201.574 312.228 202.429 313.851 203.95 314.328C210.923 316.488 218.069 319.083 225.192 322.032C225.554 322.185 225.923 322.254 226.293 322.254ZM266.862 343.227C267.798 343.227 268.722 342.771 269.274 341.928C270.159 340.596 269.793 338.796 268.461 337.911C263.682 334.734 258.522 331.68 253.134 328.827C251.532 327.981 249.936 327.147 248.352 326.349C246.93 325.626 245.19 326.205 244.473 327.636C243.753 329.061 244.332 330.81 245.757 331.53C247.305 332.313 248.868 333.123 250.437 333.957C255.663 336.72 260.655 339.675 265.272 342.744C265.764 343.074 266.319 343.227 266.862 343.227ZM300.036 374.43C300.621 374.43 301.209 374.25 301.722 373.881C303.015 372.945 303.309 371.13 302.376 369.831C297.954 363.669 292.725 357.765 286.83 352.296C285.666 351.213 283.83 351.273 282.75 352.458C281.667 353.631 281.736 355.464 282.909 356.556C288.519 361.758 293.49 367.374 297.69 373.224C298.254 374.007 299.139 374.43 300.036 374.43ZM317.481 416.397C317.64 416.397 317.802 416.385 317.964 416.355C319.533 416.091 320.595 414.597 320.331 413.019C319.026 405.18 316.845 397.56 313.854 390.372C313.239 388.89 311.544 388.197 310.077 388.812C308.607 389.433 307.911 391.131 308.523 392.607C311.343 399.39 313.401 406.578 314.637 413.976C314.871 415.392 316.095 416.397 317.481 416.397ZM315.903 462C317.232 462 318.429 461.076 318.72 459.72C320.427 451.905 321.444 444.087 321.747 436.491C321.813 434.886 320.574 433.539 318.978 433.476C317.313 433.398 316.041 434.655 315.981 436.254C315.687 443.514 314.712 450.993 313.08 458.481C312.738 460.044 313.725 461.589 315.282 461.934C315.492 461.976 315.699 462 315.903 462Z" fill="#CB9A6E"/>
<path fill-rule="evenodd" clip-rule="evenodd" d="M81.5055 324C82.089 324 82.6761 323.799 83.1753 323.388C83.2083 323.361 86.298 320.808 92.1984 317.694C93.5634 316.971 94.1361 315.18 93.4755 313.689C92.8149 312.201 91.1709 311.583 89.7987 312.297C83.3367 315.708 79.9644 318.51 79.8249 318.627C78.6213 319.638 78.3939 321.516 79.3185 322.83C79.8615 323.595 80.6763 324 81.5055 324Z" fill="#CB9A6E"/>
<path fill-rule="evenodd" clip-rule="evenodd" d="M279.924 498C280.998 498 282.048 497.538 282.645 496.701C282.75 496.551 285.321 492.93 288.486 486.762C289.185 485.397 288.447 483.813 286.839 483.225C285.213 482.628 283.353 483.264 282.663 484.62C279.678 490.428 277.227 493.884 277.206 493.917C276.303 495.192 276.783 496.845 278.283 497.613C278.793 497.874 279.363 498 279.924 498Z" fill="#CB9A6E"/>
<path fill-rule="evenodd" clip-rule="evenodd" d="M183.229 330.492C184.541 330.492 185.723 329.583 186.026 328.233C186.387 326.67 185.416 325.107 183.87 324.75C175.713 322.848 167.544 321.588 159.594 321C158.036 320.97 156.632 322.086 156.513 323.691C156.398 325.293 157.587 326.688 159.172 326.805C166.834 327.369 174.703 328.587 182.581 330.414C182.8 330.468 183.014 330.492 183.229 330.492ZM111.628 331.839C111.901 331.839 112.177 331.8 112.457 331.71C119.855 329.46 127.636 327.909 135.567 327.096C137.148 326.934 138.303 325.509 138.142 323.91C137.98 322.311 136.519 321.12 134.992 321.306C126.692 322.158 118.554 323.784 110.8 326.142C109.28 326.604 108.413 328.227 108.874 329.766C109.249 331.029 110.393 331.839 111.628 331.839ZM228.413 347.325C229.472 347.325 230.481 346.74 230.987 345.723C231.705 344.286 231.129 342.537 229.71 341.814C222.243 338.016 214.711 334.683 207.321 331.896C205.84 331.347 204.179 332.106 203.619 333.612C203.066 335.115 203.822 336.795 205.315 337.356C212.505 340.065 219.845 343.317 227.124 347.016C227.542 347.226 227.979 347.325 228.413 347.325ZM267.921 374.985C268.659 374.985 269.388 374.706 269.952 374.139C271.08 373.005 271.083 371.163 269.964 370.026C264.441 364.395 258.033 359.073 250.923 354.198C249.609 353.295 247.821 353.646 246.927 354.978C246.033 356.304 246.378 358.116 247.692 359.022C254.499 363.687 260.619 368.766 265.881 374.124C266.442 374.697 267.186 374.985 267.921 374.985ZM291.969 416.637C292.209 416.637 292.455 416.607 292.692 416.544C294.234 416.136 295.155 414.549 294.753 412.998C292.665 404.88 289.452 397.074 285.195 389.793C284.385 388.416 282.63 387.945 281.256 388.773C279.885 389.586 279.432 391.371 280.242 392.757C284.22 399.567 287.229 406.872 289.185 414.462C289.524 415.773 290.691 416.637 291.969 416.637ZM292.017 465C293.325 465 294.516 464.088 294.819 462.735C296.709 454.314 297.696 445.965 297.75 437.919C297.762 436.311 296.481 435 294.891 434.988H294.873C293.292 434.988 292.005 436.281 291.996 437.88C291.945 445.509 291.009 453.435 289.206 461.445C288.852 463.008 289.824 464.574 291.378 464.931C291.588 464.976 291.804 465 292.017 465Z" fill="#CB9A6E"/>
<path fill-rule="evenodd" clip-rule="evenodd" d="M78.5646 348C79.2021 348 79.8471 347.778 80.3718 347.331C80.4018 347.304 83.5026 344.673 89.3142 341.358C90.6714 340.581 91.1478 338.838 90.3903 337.455C89.6292 336.075 87.9156 335.604 86.5623 336.36C80.2368 339.972 76.8888 342.831 76.7499 342.954C75.5613 343.968 75.4116 345.774 76.4124 346.98C76.9674 347.655 77.7624 348 78.5646 348Z" fill="#CB9A6E"/>
<path fill-rule="evenodd" clip-rule="evenodd" d="M259.068 498C259.068 498 293.469 419.088 225.323 367.797C157.174 316.506 81.75 367.797 81.75 367.797" fill="#E8BB8F"/>
<path fill-rule="evenodd" clip-rule="evenodd" d="M122.437 367.686C142.558 347.565 184.303 356.691 215.686 388.065C247.059 419.448 256.185 461.193 236.063 481.314C215.942 501.435 174.197 492.309 142.814 460.935C111.44 429.552 102.315 387.807 122.437 367.686Z" fill="#FEC1C7"/>
<path fill-rule="evenodd" clip-rule="evenodd" d="M182.011 344.88C182.011 344.88 197.8 334.074 214.834 334.908C231.868 335.739 244.804 341.139 249.556 367.317C249.556 367.317 287.959 374.379 326.181 410.109C364.407 445.839 366.069 447.087 361.083 476.172C356.097 505.254 341.556 540.57 341.556 540.57L336.522 595.236C336.522 595.236 343.563 614.628 352.797 620.859C362.031 627.093 367.884 630.093 363.111 634.479C358.338 638.865 357.183 633.558 347.949 634.479C338.715 635.403 337.791 630.558 337.791 630.558C337.791 630.558 348.642 656.643 367.803 667.953C367.803 667.953 374.265 673.956 367.803 676.725C361.338 679.497 343.332 679.266 334.791 673.494C326.25 667.722 308.703 652.947 302.935 651.33C297.163 649.716 299.935 641.175 299.935 641.175L308.244 618.09C308.244 618.09 305.935 615.087 299.473 613.011C293.008 610.935 289.546 602.163 290.239 598.929C290.932 595.695 302.473 579.309 302.704 567.303C302.704 567.303 296.932 550.914 289.084 536.367C281.236 521.823 291.391 486.504 297.163 477.039C297.163 477.039 288.16 478.425 271.075 479.811C253.993 481.194 195.973 485.358 161.947 466.617C127.918 447.873 131.269 384.327 182.011 344.88Z" fill="#FFC280"/>
<path fill-rule="evenodd" clip-rule="evenodd" d="M227.985 391.77C239.148 394.332 250.176 397.572 260.958 401.502C271.728 405.456 282.342 409.929 292.485 415.371C302.601 420.834 312.384 427.062 321.099 434.682C329.838 442.215 337.32 451.494 341.925 462.231L342.003 462.414L342.006 462.615C342.087 475.608 342.039 488.598 341.967 501.591C341.967 514.584 341.703 527.58 341.556 540.573C341.22 527.583 340.767 514.593 340.578 501.6C340.32 488.613 340.083 475.623 339.978 462.63L340.056 463.014C335.556 452.67 328.164 443.775 319.638 436.341C311.154 428.805 301.536 422.574 291.555 417.087C281.532 411.663 271.164 406.833 260.505 402.699C249.855 398.571 239.052 394.734 227.985 391.77Z" fill="#7A3710"/>
<path fill-rule="evenodd" clip-rule="evenodd" d="M302.704 567.303C304.576 571.233 306.019 575.346 307.284 579.507C308.526 583.683 309.504 587.94 310.191 592.254C310.746 596.58 311.205 600.951 310.947 605.334C310.686 609.696 309.945 614.076 308.244 618.093C309.351 613.881 309.771 609.594 309.792 605.304C309.81 601.011 309.369 596.724 308.709 592.479C308.154 588.21 307.17 584.007 306.178 579.81C305.152 575.616 303.994 571.449 302.704 567.303Z" fill="black"/>
<path fill-rule="evenodd" clip-rule="evenodd" d="M336.525 595.236C336.147 601.191 335.823 607.092 335.88 612.993C335.937 618.894 336.36 624.756 337.794 630.555C336.501 627.855 335.712 624.924 335.163 621.972C334.629 619.011 334.443 616.005 334.38 613.008C334.371 610.008 334.521 607.014 334.887 604.044C335.247 601.074 335.724 598.119 336.525 595.236Z" fill="black"/>
<path fill-rule="evenodd" clip-rule="evenodd" d="M296.18 477.182C296.381 475.487 297.167 474.005 298.106 472.679C299.093 471.383 300.296 470.213 301.847 469.517C301.499 470.303 301.058 470.963 300.641 471.635C300.23 472.313 299.762 472.934 299.312 473.57C298.361 474.812 297.416 476.027 296.18 477.182Z" fill="#7A3710"/>
<path fill-rule="evenodd" clip-rule="evenodd" d="M213.626 331.5C213.626 331.5 187.375 336.246 178.243 344.322C169.108 352.401 113.911 389.328 134.194 438.444C154.48 487.56 233.749 485.895 290.188 477.942C290.188 477.942 278.161 525.918 277.084 552.804C276.01 579.69 271.708 602.277 271.708 602.277C271.708 602.277 321.591 607.296 343.047 603.708V573.237C343.047 573.237 354.159 573.954 355.236 571.443C355.236 571.443 366.348 462.105 364.197 453.144C362.046 444.18 310.929 378.996 249.556 367.314L245.374 349.215C245.374 349.215 244.523 331.419 213.626 331.5Z" fill="#72B3E7"/>
<path fill-rule="evenodd" clip-rule="evenodd" d="M227.985 391.77C239.193 394.167 250.227 397.428 261.039 401.295C271.821 405.231 282.486 409.623 292.644 415.083C302.796 420.522 312.591 426.774 321.36 434.385C330.087 441.981 337.695 451.245 342.237 462.102L342.339 462.339L342.342 462.597C342.669 481.035 342.822 499.473 342.945 517.914C343.122 536.352 343.122 554.796 343.047 573.237C342.288 554.811 341.604 536.379 341.094 517.95C340.533 499.518 339.999 481.083 339.642 462.648L339.744 463.143C335.346 452.82 327.855 444.057 319.413 436.602C310.947 429.102 301.374 422.841 291.408 417.372C281.409 411.936 271.065 407.07 260.436 402.888C249.81 398.703 239.01 394.896 227.985 391.77Z" fill="#628DB0"/>
<path fill-rule="evenodd" clip-rule="evenodd" d="M305.616 621.354C305.616 621.354 306.876 621.168 306.99 621.576C307.098 621.966 306.246 623.64 306.246 623.64C307.998 630.063 312.828 648.282 313.35 655.56C313.446 656.907 314.157 658.11 315.276 658.86L334.569 671.766C336.294 672.918 338.61 672.453 339.756 670.725C342.87 666.036 349.284 657.888 356.004 658.362C356.004 658.362 381.186 672.168 381.186 673.923C381.186 675.675 365.328 685.095 336.456 676.989C336.456 676.989 313.284 660.561 305.616 655.743C297.948 650.922 292.692 648.732 296.418 639.972C300.141 631.209 305.616 621.354 305.616 621.354Z" fill="#131313"/>
<path fill-rule="evenodd" clip-rule="evenodd" d="M337.5 629.724L338.817 632.817C338.817 632.817 352.386 641.124 371.127 633.414C371.127 633.414 373.164 632.199 371.535 631.47C369.906 630.738 353.292 619.794 351.945 620.235C350.601 620.676 344.034 630.654 337.5 629.724Z" fill="#131313"/>
<path fill-rule="evenodd" clip-rule="evenodd" d="M285.1 603.42C285.1 603.42 283.33 607.584 286.543 608.826C289.756 610.071 307.887 619.086 307.887 619.086L308.244 618.093C307.113 615.249 303.931 608.871 303.127 604.527L285.1 603.42Z" fill="#131313"/>
<path fill-rule="evenodd" clip-rule="evenodd" d="M202.122 197.155C202.122 197.155 204.828 223.277 180.75 236.695C180.75 236.695 180.325 253.5 207.253 253.5C234.181 253.5 234.75 239.237 234.75 239.237C234.75 239.237 222.356 230.054 220.928 227.796C220.928 227.796 221.785 218.901 224.066 215.088C226.344 211.276 228.197 201.11 217.084 195.601C205.969 190.094 202.122 197.155 202.122 197.155Z" fill="#FFC280"/>
<path fill-rule="evenodd" clip-rule="evenodd" d="M144.999 262.617C139.896 283.449 135.219 321.717 134.157 327.246C133.095 332.775 123.315 391.026 116.937 398.892C110.559 406.758 100.779 420.363 99.7167 422.28C99.7167 422.28 96.1017 428.442 93.8697 441.198C93.8697 441.198 94.1877 442.368 95.3577 442.794C95.3577 442.794 93.2307 447.258 93.8697 447.576C94.5057 447.897 95.7837 449.28 97.1667 448.002C98.5467 446.727 103.86 431.421 105.456 430.038C107.049 428.658 97.6947 448.002 97.5897 449.172C97.4817 450.339 100.356 450.234 100.356 450.234C100.356 450.234 107.049 440.241 107.583 438.648C108.114 437.055 111.09 433.014 111.729 433.014C112.365 433.014 107.262 441.624 106.2 443.007C105.138 444.39 104.712 446.409 105.03 446.832C105.351 447.258 108.645 446.304 109.284 445.77C109.92 445.239 119.913 431.4 120.339 431.46C120.762 431.526 121.506 430.569 122.04 429.825C122.571 429.081 120.339 435.351 122.145 438.543C122.145 438.543 122.784 439.182 124.908 439.182C124.908 439.182 127.14 430.995 128.31 429.93C129.48 428.868 131.286 418.449 132.561 415.368C133.839 412.287 130.224 409.416 136.494 396.024C142.767 382.629 154.035 359.985 154.035 335.112C154.035 335.112 163.071 303.168 168.492 295.383C168.492 295.383 178.17 315.651 179.25 343.5C179.25 343.5 196.07 353.322 242.68 344.776C242.68 344.776 247.047 326.397 252.999 317.466C258.951 308.538 261.654 301.524 262.779 296.421C263.904 291.315 257.463 278.985 255.975 275.799C254.487 272.607 261.36 257.937 249.42 248.583C237.48 239.229 234.834 239.01 234.834 239.01C234.834 239.01 204.894 263.52 181.857 236.493C181.857 236.493 150.102 241.782 144.999 262.617Z" fill="#FFC280"/>
<path fill-rule="evenodd" clip-rule="evenodd" d="M181.59 233.915C181.59 233.915 193.494 246.035 197.322 249.86C201.15 253.688 234.528 272.396 231.975 236.468C231.975 236.468 251.109 246.884 253.872 253.475C256.638 260.066 256.848 270.482 256.848 273.884C256.848 277.286 265.353 291.956 261.951 299.822C258.549 307.688 255.999 309.815 254.724 320.657C253.449 331.496 252.81 350.42 218.583 350.633C184.353 350.846 178.614 349.145 175.638 335.111C172.659 321.083 176.487 310.238 167.772 297.695L165.858 303.647C165.858 303.647 150.126 302.159 134.181 294.506C134.181 294.506 140.982 251.774 156.078 244.547C171.171 237.317 181.59 233.915 181.59 233.915Z" fill="#0A0700"/>
<path fill-rule="evenodd" clip-rule="evenodd" d="M196.684 199.703C196.684 199.703 200.086 206.507 207.526 210.971C214.969 215.435 224.323 222.239 228.997 220.751C233.677 219.263 246.07 209.765 249.046 199.139C252.022 188.507 253.873 170.789 251.959 162.074C250.045 153.356 239.203 135.074 219.859 135.074C200.509 135.074 183.289 155.479 187.969 178.015C187.969 178.015 182.59 184.609 187.192 191.41C191.794 198.214 196.684 199.703 196.684 199.703Z" fill="#FFC280"/>
<path fill-rule="evenodd" clip-rule="evenodd" d="M208.227 185.459C208.227 185.459 216.768 185.672 219.036 187.319C219.036 187.319 219.867 187.613 219.546 186.521C219.546 186.521 220.773 187.397 220.851 186.92C220.929 186.443 220.317 181.817 215.508 181.181C210.699 180.542 207.084 184.955 208.227 185.459Z" fill="#20180F"/>
<path fill-rule="evenodd" clip-rule="evenodd" d="M245.645 184.237C245.645 184.237 240.224 184.156 238.031 185.8C238.031 185.8 237.224 186.094 237.536 185.005C237.536 185.005 236.351 185.881 236.273 185.404C236.198 184.924 238.403 180.568 243.059 179.929C247.712 179.296 248.942 183.367 245.645 184.237Z" fill="#20180F"/>
<path fill-rule="evenodd" clip-rule="evenodd" d="M231.453 200.289C231.453 200.289 230.814 200.82 231.453 201.351C232.092 201.882 236.289 200.394 237.246 199.011C238.203 197.628 237.636 197.472 236.271 198.267C234.906 199.065 231.453 200.289 231.453 200.289Z" fill="#20180F"/>
<path fill-rule="evenodd" clip-rule="evenodd" d="M222.843 204.592C222.843 204.592 222.576 204.115 224.862 204.115C227.151 204.115 226.935 204.538 230.655 204.592C234.378 204.646 235.899 204.592 234.447 205.549C232.995 206.506 233.1 206.452 232.836 207.196C232.569 207.94 229.206 209.272 226.554 208.366C223.905 207.463 221.199 205.063 222.843 204.592Z" fill="#EE4E2F"/>
<path fill-rule="evenodd" clip-rule="evenodd" d="M206.879 172.916C207.287 172.79 206.738 173.621 208.58 173.306C210.425 172.985 215.453 172.418 219.989 175.253C219.989 175.253 220.802 174.614 220.856 173.411C220.91 172.283 213.272 168.422 206.771 172.703C206.327 172.994 206.465 173.042 206.879 172.916Z" fill="#20180F"/>
<path fill-rule="evenodd" clip-rule="evenodd" d="M245.645 173.341C245.645 173.341 242.954 170.434 238.418 171.781C233.879 173.128 234.305 175.183 234.449 175.75C234.587 176.317 237.848 173.551 241.25 173.587C244.652 173.623 245.645 174.331 245.645 173.341Z" fill="#20180F"/>
<path fill-rule="evenodd" clip-rule="evenodd" d="M208.804 185.459C208.804 185.459 217.345 185.672 219.613 187.319C219.613 187.319 220.444 187.613 220.123 186.521C220.123 186.521 221.347 187.397 221.425 186.92C221.506 186.443 220.894 181.817 216.085 181.181C211.273 180.542 207.661 184.955 208.804 185.459Z" fill="black"/>
<path fill-rule="evenodd" clip-rule="evenodd" d="M246.219 184.237C246.219 184.237 240.801 184.156 238.608 185.8C238.608 185.8 237.801 186.094 238.11 185.005C238.11 185.005 236.925 185.881 236.85 185.404C236.775 184.924 238.977 180.568 243.636 179.929C248.289 179.296 249.516 183.367 246.219 184.237Z" fill="black"/>
<path fill-rule="evenodd" clip-rule="evenodd" d="M232.03 200.289C232.03 200.289 231.391 200.82 232.03 201.351C232.666 201.882 236.866 200.394 237.823 199.011C238.78 197.628 238.213 197.472 236.845 198.267C235.483 199.065 232.03 200.289 232.03 200.289Z" fill="black"/>
<path fill-rule="evenodd" clip-rule="evenodd" d="M223.42 204.592C223.42 204.592 223.153 204.115 225.439 204.115C227.725 204.115 227.512 204.538 231.232 204.592C234.952 204.646 236.476 204.592 235.021 205.549C233.572 206.506 233.677 206.452 233.41 207.196C233.146 207.94 229.78 209.272 227.131 208.366C224.482 207.463 221.776 205.063 223.42 204.592Z" fill="#EE4E2F"/>
<path fill-rule="evenodd" clip-rule="evenodd" d="M207.456 172.916C207.864 172.79 207.315 173.621 209.157 173.306C211.002 172.985 216.03 172.418 220.566 175.253C220.566 175.253 221.379 174.614 221.433 173.411C221.484 172.283 213.846 168.422 207.348 172.703C206.904 172.994 207.042 173.042 207.456 172.916Z" fill="black"/>
<path fill-rule="evenodd" clip-rule="evenodd" d="M246.219 173.341C246.219 173.341 243.528 170.434 238.992 171.781C234.456 173.128 234.879 175.183 235.023 175.75C235.164 176.317 238.425 173.551 241.827 173.587C245.229 173.623 246.219 174.331 246.219 173.341Z" fill="black"/>
<path fill-rule="evenodd" clip-rule="evenodd" d="M251.305 151.691C249.607 150.365 254.707 149.486 252.742 144.731C251.476 141.671 246.097 140.378 244.426 138.698C243.355 137.621 246.22 136.151 243.406 133.859C241.486 132.29 235.672 132.122 232.621 131.567C226.579 130.469 224.767 124.922 217.381 131.189C216.871 131.624 216.091 131.096 216.235 130.439C216.406 129.629 216.58 128.591 216.67 127.361C216.745 126.359 219.589 125.822 220.288 124.802C222.055 122.237 218.281 117.632 217.399 114.128C216.574 110.837 209.776 109.877 208.894 108.269C201.244 94.3608 187.786 101.528 183.775 111.08C182.998 112.922 179.362 109.634 173.662 109.958C168.928 110.225 160.744 120.23 169.891 125.765C169.891 125.765 165.529 131.3 167.161 135.719C167.878 137.657 174.145 138.479 175.108 141.254C175.981 143.777 180.922 149.024 184.234 150.014C184.459 150.083 184.474 150.392 184.255 150.485C181.564 151.631 172.663 156.368 178.318 169.022C179.449 171.557 176.161 174.83 177.754 178.016C179.038 180.581 181.24 179.228 182.65 181.118C183.64 182.441 181.687 187.061 182.992 188.438C184.801 190.349 186.931 192.305 189.421 194.306C189.421 194.306 183.064 188.513 186.517 180.437C188.329 176.207 192.763 177.368 194.449 179.351C196.402 181.646 198.718 186.389 199.849 186.389C200.977 186.389 198.058 168.593 210.796 157.724C214.852 154.262 221.434 148.211 235.567 150.59C251.119 153.206 252.742 170.735 252.742 170.735C252.742 170.735 256.246 169.301 256.399 162.137C256.504 157.127 255.211 154.751 251.305 151.691Z" fill="#765227"/>
<path fill-rule="evenodd" clip-rule="evenodd" d="M191.441 186.487C191.441 186.487 190.922 185.887 190.94 186.847C190.961 187.807 190.721 188.329 190.442 188.248C190.16 188.17 188.84 185.866 190.82 184.786C192.803 183.706 193.883 185.848 195.305 188.509C196.724 191.17 196.184 194.95 194.804 195.091C193.424 195.232 193.823 194.272 193.961 192.352C194.102 190.429 192.161 186.886 191.441 186.487Z" fill="black"/>
<path fill-rule="evenodd" clip-rule="evenodd" d="M192.13 389.409L325.416 389.181C328.749 389.178 331.425 386.142 331.359 382.437V382.35L187.34 382.593L187.369 384.228C187.419 387.105 189.54 389.415 192.13 389.409Z" fill="#807A74"/>
<path fill-rule="evenodd" clip-rule="evenodd" d="M239.943 388.518L340.845 388.911C344.232 388.923 347.226 386.73 348.204 383.517L368.829 315.621C370.311 310.752 366.615 305.853 361.476 305.871L263.139 306.258C259.878 306.27 256.98 308.328 255.927 311.382L232.738 378.501C231.042 383.4 234.71 388.497 239.943 388.518Z" fill="#BFBAB4"/>
</svg>
