<svg width="900" height="900" viewBox="0 0 900 900" fill="none" xmlns="http://www.w3.org/2000/svg">
<path d="M174.6 179.1C100.35 249.3 52.2001 349.65 55.8001 445.95C59.8501 542.7 116.1 635.4 190.35 665.55C264.6 696.15 357.3 664.2 423.9 638.1C490.5 612 531.45 592.2 582.3 561.6C633.15 531.45 694.35 490.5 714.6 429.75C734.85 369 714.15 288 663.3 217.8C612 147.6 531 88.65 440.1 78.75C349.65 69.3 249.3 108.9 174.6 179.1Z" fill="#AECF8A"/>
<path fill-rule="evenodd" clip-rule="evenodd" d="M620.676 724.088C698.851 726.694 675.769 682.497 689.854 630.439C652.042 634.094 588.648 639.943 542.582 630.458C547.306 641.018 548.488 654.933 552.321 666.594C562.203 712.791 569.685 727.13 620.676 724.088Z" fill="#FECDC7"/>
<path fill-rule="evenodd" clip-rule="evenodd" d="M564.366 634.085C597.297 635.448 637.566 638.748 667.047 632.218C634.394 626.836 594.7 625.285 564.366 634.085Z" fill="#5F4134"/>
<path fill-rule="evenodd" clip-rule="evenodd" d="M564.366 634.085C572.503 629.409 592.997 635.142 580.8 622.403C562.463 621.73 525.288 631.021 564.366 634.085Z" fill="#FDADA7"/>
<path fill-rule="evenodd" clip-rule="evenodd" d="M658.5 631.067C666.242 632.818 684.218 635.448 686.69 626.406C673.96 623.2 660.26 617.976 658.5 631.067Z" fill="#FDADA7"/>
<path fill-rule="evenodd" clip-rule="evenodd" d="M683.259 624.63C686.323 627.582 688.098 627.273 684.074 630.539C691.889 629.079 690.344 625.749 683.259 624.63Z" fill="#FDB7B2"/>
<path fill-rule="evenodd" clip-rule="evenodd" d="M545.842 631.367C545.403 630.097 543.788 629.524 545.427 628.585C555.924 623.006 534.875 630.273 545.842 631.367Z" fill="#FDB7B2"/>
<path fill-rule="evenodd" clip-rule="evenodd" d="M683.27 630.576C681.297 630.497 678.512 630 677.545 632.176C679.333 631.215 681.654 632.155 683.27 630.576Z" fill="#FDB7B2"/>
<path fill-rule="evenodd" clip-rule="evenodd" d="M673.202 632.982C672.19 631.9 670.787 632.012 669.654 633.261C670.835 633.17 672.017 633.073 673.202 632.982Z" fill="#FDB7B2"/>
<path fill-rule="evenodd" clip-rule="evenodd" d="M689.223 633.009C689.314 632.097 689.411 631.185 689.505 630.276C688.502 631.306 688.383 632.461 689.223 633.009Z" fill="#FED9D4"/>
<path fill-rule="evenodd" clip-rule="evenodd" d="M674.832 632.464C674.123 631.933 674.047 632.43 674.005 632.976C674.277 632.806 674.556 632.636 674.832 632.464Z" fill="#FDB7B2"/>
<path fill-rule="evenodd" clip-rule="evenodd" d="M676.736 632.2C676.185 632.364 676.461 632.279 676.736 632.2C676.3 631.724 676.03 631.815 676.736 632.2Z" fill="#FDB7B2"/>
<path fill-rule="evenodd" clip-rule="evenodd" d="M651.18 630.127C672.835 616.624 594.151 615.427 591.503 626.815C609.709 632.288 631.706 626.197 651.18 630.127Z" fill="#FECDC7"/>
<path fill-rule="evenodd" clip-rule="evenodd" d="M601.688 628.945C593.191 629.203 591.491 627.773 593.445 621.415C569.933 619.833 585.906 634.527 601.688 628.945Z" fill="#FDB7B2"/>
<path fill-rule="evenodd" clip-rule="evenodd" d="M657.69 621.842C653.251 625.321 649.769 632.203 658.496 631.064C662.711 624.985 666.132 624.97 657.69 621.842Z" fill="#FDB7B2"/>
<path fill-rule="evenodd" clip-rule="evenodd" d="M666.386 622.703C669.465 623.6 675.471 625.785 678.402 623.906C674.48 622.694 670.453 622.67 666.386 622.703Z" fill="#FDB7B2"/>
<path fill-rule="evenodd" clip-rule="evenodd" d="M549.378 626.521C549.742 626.864 550.066 627.324 550.497 627.485C553.685 624.964 553.033 625.585 549.378 626.521Z" fill="#FDB7B2"/>
<path fill-rule="evenodd" clip-rule="evenodd" d="M680.302 623.97C681.727 624.394 681.012 624.179 680.302 623.97C679.651 625.824 681.415 625.897 680.302 623.97Z" fill="#FDB7B2"/>
<path fill-rule="evenodd" clip-rule="evenodd" d="M559.176 624.573C560.66 624.4 562.742 625.494 563.548 623.888C562.091 624.118 560.633 624.346 559.176 624.573Z" fill="#FDB7B2"/>
<path fill-rule="evenodd" clip-rule="evenodd" d="M567.076 623.555C568.024 624.533 568.769 623.87 569.521 623.251C568.706 623.354 567.891 623.455 567.076 623.555Z" fill="#FDB7B2"/>
<path fill-rule="evenodd" clip-rule="evenodd" d="M571.418 623.048C572.166 623.873 572.766 623.488 573.333 622.818C572.694 622.894 572.057 622.973 571.418 623.048Z" fill="#FDB7B2"/>
<path fill-rule="evenodd" clip-rule="evenodd" d="M564.891 623.8C565.445 624.715 565.866 624.346 566.26 623.664C565.806 623.712 565.345 623.755 564.891 623.8Z" fill="#FDB7B2"/>
<path fill-rule="evenodd" clip-rule="evenodd" d="M570.345 623.242L570.888 623.1L570.345 623.242Z" fill="#FDB7B2"/>
<path fill-rule="evenodd" clip-rule="evenodd" d="M619.297 628.727C615.869 628.188 611.754 627.955 608.418 628.858C612.042 628.812 615.672 628.77 619.297 628.727Z" fill="#FDB7B2"/>
<path fill-rule="evenodd" clip-rule="evenodd" d="M607.9 628.873C607.072 628.106 604.6 628.073 603.797 628.924C605.166 628.906 606.533 628.888 607.9 628.873Z" fill="#FDB7B2"/>
<path fill-rule="evenodd" clip-rule="evenodd" d="M651.181 630.127C650.333 630.009 649.478 629.888 648.627 629.767C649.478 629.888 650.333 630.009 651.181 630.127Z" fill="#FDB7B2"/>
<path fill-rule="evenodd" clip-rule="evenodd" d="M603.275 628.939C602.906 628.924 602.539 628.912 602.172 628.897C602.539 628.912 602.906 628.924 603.275 628.939Z" fill="#FDB7B2"/>
<path fill-rule="evenodd" clip-rule="evenodd" d="M619.903 628.667C619.691 628.682 619.476 628.697 619.263 628.709C619.476 628.697 619.691 628.682 619.903 628.667Z" fill="#FDB7B2"/>
<path fill-rule="evenodd" clip-rule="evenodd" d="M532.172 111.595C532.179 111.58 532.182 111.574 532.191 111.562L532.172 111.595Z" fill="#48652A"/>
<path fill-rule="evenodd" clip-rule="evenodd" d="M640.512 515.421C640.506 515.345 640.509 515.382 640.512 515.421C640.482 515.385 640.457 515.348 640.512 515.421Z" fill="#48652A"/>
<path fill-rule="evenodd" clip-rule="evenodd" d="M419.897 236.421C419.888 236.43 419.882 236.451 419.863 236.448L419.897 236.421Z" fill="#48652A"/>
<path fill-rule="evenodd" clip-rule="evenodd" d="M407.397 494.842C408.609 494.285 411.212 490.461 408.272 491.409C407.136 492.215 406.003 494.282 407.397 494.842ZM410.803 490.851C421.951 479.427 449.206 463.373 457.497 460.227C440.233 469.842 422.518 468.524 407.363 470.409C442.957 466.967 416.206 479.794 410.803 490.851ZM415.027 504.779C415.339 499.879 421.16 492.139 419.6 488.682C418.251 492.721 412.888 500.179 415.027 504.779ZM425.836 498.082C430.563 501.955 434.366 490.276 433.082 486.824C428.815 482.4 423.5 494.273 425.836 498.082ZM439.103 499.985C441.709 492.961 442.663 483.964 445.845 476.567C441.172 481.833 438.269 493.009 439.103 499.985ZM448.294 497.8C455.16 510.239 463.576 483.682 460.509 477.048C450.515 473.058 446.994 490.394 448.294 497.8ZM575.724 496.07C634.354 662.297 548.485 278.44 509.2 264.482C510.209 274.473 505.027 286.025 501.409 294.521C501.482 287.128 491.254 268.155 495.291 285.097C501.624 352.721 563.191 419.909 575.724 496.07ZM588.254 547.124C594.594 563.718 594.118 636.088 603.472 590.367C608.639 578.988 585.148 528.803 588.254 547.124ZM604.703 547.251C608.985 602.548 623.606 460.891 613.83 448.512C609.563 451.397 591.645 466.673 595.697 452.721C569.948 399.024 604.303 521.842 604.703 547.251ZM611.472 584.736C631.654 683.779 637.542 469.718 638.615 427.115C604.124 461.012 627.627 535.561 611.472 584.736ZM619.157 420.979C618.824 425.173 623.733 434.615 627.445 428.615C628.257 425.339 621.185 417.239 619.157 420.979ZM638.633 422.251C641.56 414.415 617.936 393.479 620.109 406.691C627.442 408.918 636.569 421.864 638.633 422.251ZM637.842 390.139C636.682 387.603 627.342 383.006 626.994 388.079C630.872 393.706 640.794 402.639 637.842 390.139ZM637.124 371.903C635.503 368.676 627.009 365.436 624.057 369.512C624.633 372.585 639.082 377.524 637.124 371.903ZM574.097 401.448C574.239 408.373 587.197 405.391 587.409 399.445C585.924 395.833 575.706 398.715 574.097 401.448ZM575.618 387.206C579.791 386.712 598.185 390.206 590.657 382.261C585.372 376.303 561.579 383.585 575.618 387.206ZM635.227 343.055C625.078 304.243 642.688 208.77 589.169 268.694C565.642 288.988 574.703 321.152 554.26 276.291C549.124 265.182 537.836 256.943 532.309 247.655C534.654 240.57 567.251 215.097 548.406 219.846C524.506 243.34 540.997 248.573 518.115 240.079C513.266 282.003 556.772 323.276 563.527 367.791C564.224 374.455 568.857 366.015 572.824 367.079C581.236 362.324 589.779 372.755 597.766 367.776C595.409 356.933 573.691 363.324 565.957 367.276C574.894 351.67 590.851 332.382 607.421 350.039C628.391 337.412 637.233 352.93 635.227 343.055ZM625.257 217.815C623.563 215.194 621.285 211.973 618.121 210.852C619.663 212.967 623.375 218.525 625.257 217.815ZM606.915 247.234C612.221 252.549 599.936 230.206 593.254 230C597.954 234.979 604.333 240.322 606.915 247.234ZM615.218 226.146C611.054 216.106 592.818 197.831 583.309 208.482C589.966 212.903 621.951 243.479 615.218 226.146ZM611.439 205.152C607.918 203.285 604.154 198.803 600.627 198.331C601.939 200.97 616.451 211.828 611.439 205.152ZM598.46 196.443C592.503 192.622 584.963 189.564 580.433 185.612C583.5 189.385 595.709 198.576 598.46 196.443ZM578.672 217.506C572.754 213.722 579.039 220.115 582.33 221.794C582.894 219.837 579.857 218.788 578.672 217.506ZM578.894 184.285C576.927 182.737 575.463 180.082 573.072 179.349C571.891 181.109 580.688 187.243 578.894 184.285ZM567.6 206.988C564.582 206.525 572.469 213.946 574.288 215.558C576.085 213.325 569.018 209.676 567.6 206.988ZM574.027 253.067C572.194 251.094 568.472 248.206 565.857 245.385C566.133 248.54 573.745 254.503 574.027 253.067ZM589.645 226.106C587.754 224.84 586.118 223.143 584.075 222.14C580.269 221.418 593.96 231.691 589.645 226.106ZM592.06 229.043C590.994 229.718 593.206 229.885 593.003 229.149C592.682 229.079 592.315 229.149 592.06 229.043ZM575.385 255.061C578.866 256.994 579.76 261.67 583.091 263.249C582.985 260.818 576.891 252.449 575.385 255.061ZM578.548 242.497C584.139 253.082 599.027 251.518 588.121 239.812C580.415 229.994 562.488 230.679 578.548 242.497ZM571.688 176.825C569.821 175.215 563.912 164.261 566.106 168.87C565.394 170.909 571.348 180.415 571.688 176.825ZM568.433 126.743C567.621 125.088 567.521 128.285 567.572 129.088C568.424 128.637 568.912 127.661 568.433 126.743ZM566.8 131.058C567.057 131.397 567.263 131.015 567.494 130.843C567.333 130.325 567.012 130.815 566.8 131.058ZM565.148 140.079C564.582 142.667 565.118 146.937 564.278 148.37C566.827 147.361 567.172 140.57 565.148 140.079ZM565.636 138.164C565.397 138.285 565.5 138.461 565.509 138.664C565.809 138.585 565.688 138.409 565.636 138.164ZM565.3 139.237C565.239 139.358 565.148 139.479 565.288 139.564C565.333 139.443 565.457 139.331 565.3 139.237ZM559.472 238.582C559.554 240.897 558.96 243.349 559.869 245.528C562.551 242.276 560.3 228.512 559.472 238.582ZM559.442 216.179C560.557 222.531 558.151 228.091 560.763 233.306C561.042 229.303 561.688 207.137 559.442 216.179ZM560.439 207.07C560.3 210.146 562.306 204.785 561.533 203.597C560.609 201.191 558.982 206.109 560.439 207.07ZM562.597 171.134C562.257 177.558 558.391 199.294 561.8 200.334C561.745 191.373 564.712 180.47 562.597 171.134ZM563.348 168.855C563.482 169.012 563.694 169.67 563.694 169.134C563.775 168.785 563.575 168.718 563.348 168.855ZM563.636 164.497C563.297 165.055 562.633 165.849 563.575 166.088C564.418 165.728 564.312 164.967 563.636 164.497ZM563.06 163.949C563.588 164.173 563.697 164.276 563.966 163.843C563.582 163.537 563.494 163.552 563.06 163.949ZM564.045 161.694C563.26 163.152 564.788 157.961 563.839 158.018C564.73 158.291 561.86 160.573 564.045 161.694ZM559.342 256.906C560.469 267.743 558.963 277.588 562.394 288.103C561.906 280.303 560.245 238.167 559.342 256.906ZM563.236 149.534C554.53 165.379 538.982 171.918 523.994 179.073C538.921 176.785 563.824 158 563.236 149.534ZM563.142 131.77C562.533 132.525 561.603 133.209 560.921 133.649C561.678 133.467 564.218 131 563.142 131.77ZM559.782 134.706C555.336 137.615 548.494 141.585 544.33 142.179C547.36 144.658 561.512 136.303 559.782 134.706ZM539.921 142.152C538.897 142.176 539.642 143.3 540.106 143.385C541.463 143.028 541.185 142.452 539.921 142.152ZM538.791 142.94C538.275 141.576 536.518 142.485 535.369 142.67C536.042 144.079 538.775 144.855 538.791 142.94ZM534.488 142.612C533.566 143.646 534.421 143.743 535.206 143.206C535.627 143.5 534.775 142.903 534.488 142.612ZM532.594 153.609C521.242 153.725 486.618 172.658 495.721 177.612C505.448 160.961 525.236 166.749 540.163 159.749C555.254 150.706 543.115 149.9 532.594 153.609ZM527.548 142.382C520.618 143.3 513.418 142.07 507.763 145.094C509.288 143.349 529.936 146.025 527.548 142.382ZM524.418 226.588C520.472 229.376 539.16 214.243 544.412 211.231C536.836 213.897 528.109 220.125 524.418 226.588ZM521.86 231.037C522.372 231.634 522.718 231.634 522.772 230.761C522.551 230.418 522.16 230.937 521.86 231.037ZM517.209 214.055C525.23 204.331 537.954 197.449 547.972 189.037C549.86 169.609 517.415 204.728 517.209 214.055ZM513.2 184.864C533.466 169.985 498.906 190.015 500.466 204.325C499.748 212.761 506.382 187.167 513.2 184.864ZM512.791 224.488C514.109 222.331 516.306 218.6 516.618 215.673C513.739 216.443 512.445 223.373 512.791 224.488ZM490.485 193.537C473.118 199.252 498.433 224.34 508.294 225.252C500.172 217.743 498.557 196.634 490.485 193.537ZM490.794 233.461C489.46 232.528 485.739 227.231 485.354 229.131C485.83 230.734 490.421 235.406 490.794 233.461ZM480.836 234.9C459.569 224.718 485.782 253.622 489.163 260.57C495.439 257.185 483.733 240.867 480.836 234.9ZM475.033 255.103C477.188 258.146 481.451 268.097 481.666 267.446C481.724 264.87 474.436 250.112 475.033 255.103ZM491.691 236.728C494.675 240.064 497.079 244.831 500.451 247.312C500.766 244.64 491.915 232.912 491.691 236.728ZM643.366 399.558C647.045 402.564 645.121 392.679 642.997 395.464C643.133 396.961 643.248 398.258 643.366 399.558ZM628.803 224.764C629.003 225.891 631.178 228.179 631.185 226.137C629.448 222.494 624.697 218.288 628.803 224.764ZM595.23 155.125C598.272 155.125 601.527 156.503 604.251 155.922C604.772 155.246 593.033 153.064 595.23 155.125ZM607.133 156.782C608.642 156.791 615.391 158.964 613.563 156.746C612.088 156.825 606.463 155.228 607.133 156.782ZM469.054 190.185C467.266 190.864 466.439 195.64 466.627 197.846C468.482 196.652 468.694 192.294 469.054 190.185ZM462.897 256.434C443.569 236.215 460.406 271.006 465.694 279.306C473.091 274.409 466.679 262.3 462.897 256.434ZM462.33 208.485C461.891 208.94 462.106 209.115 462.688 209.176C463.075 208.925 462.518 208.709 462.33 208.485ZM461.554 210.712C462.012 211.534 462.236 212.031 462.724 211.109C462.318 210.864 462.06 210.34 461.554 210.712ZM459.627 214.358C460.169 214.77 460.376 214.958 460.803 214.403C460.324 213.991 460.148 213.67 459.627 214.358ZM460.712 193.934C458.188 194.606 455.336 194.315 453 195.443C454.409 196.609 462.712 195.197 460.712 193.934ZM460.297 180.767C445.788 159.897 406.033 189.879 446.642 181.191C450.936 181.534 461.654 189.618 460.297 180.767ZM450.682 228.185C441.93 236.946 414.927 298.682 426.757 276.179C429.766 262.067 469.3 201.709 450.682 228.185ZM424.53 256.961C419.154 253.861 411.972 262.025 414.06 266.109C417.339 267.894 431.836 260.246 424.53 256.961ZM419.227 299.755C421.739 299.728 421.103 290.191 421.888 290.234C419.721 291.761 419.83 296.858 419.227 299.755ZM435.857 279.243C437.885 291.888 446.53 282.394 441.836 274.294C438.409 264.794 432.648 272.834 435.857 279.243ZM463.709 318.37C458.703 314.564 447.515 327.018 450.563 332.058C456.721 335.167 464.121 323.631 463.709 318.37ZM448.033 326.955C447.948 326.97 447.869 327.009 447.788 327.04C447.875 327.206 448.291 327.012 448.033 326.955ZM391.082 503.667C396.927 485.961 401.609 454.382 422.209 451.591C426.769 453.003 438.297 462.515 438.227 452.488C411.66 435.476 439.569 433.624 452.791 450.082C463.73 462.188 443.027 436.133 433.791 436.13C439.166 430.161 454.606 426.794 462.154 430.197C467.763 434.191 469.015 440.788 472.654 445.697C473.975 442.994 467.551 435.715 465.948 431.806C463.666 425.767 491.045 444.721 483.727 455.842C496.385 463.991 530.363 466.064 546.088 483.37C613.597 560.794 516.227 346.688 488.915 315.834C472.812 330.522 467.366 356.645 465.566 377.033C445.851 362.655 434.706 306.861 469.842 299.818C483.691 290.564 458.039 294.128 452.951 298.458C450.615 298.267 456.888 283.306 452.463 287.309C455.027 297.067 432.13 292.297 425.121 299.406C419.633 301.24 415.251 312.8 414.66 302.518C413.915 292.261 406.915 280.049 419.448 275.725C402.842 282.837 404.206 251.746 420.9 248.649C409.818 255.546 394.863 260.57 409.788 240.561C417.512 234.006 430.557 238.325 436.948 230.337C429.563 224.615 410.772 237.458 401.988 242.6C396.018 230.728 417.879 222.2 427.254 218.609C417.512 218.834 407.739 226.558 401.118 233.785C392.718 219.846 412.072 212.031 425.009 210.267C482.53 203.885 424.885 195.249 401.642 214.876C403.224 194.667 472.697 192.552 415.439 199.706C381.509 223.679 427.83 150.549 452.769 163.309C473.954 176.17 459.26 186.731 489.009 179.422C488.33 163.273 493.297 147.788 505.454 144.634C473.2 155.128 518 96.3518 544.378 113.452C548.409 113.3 567.742 122.476 557.794 114.055C527.8 97.2973 480.582 124.152 536.424 90.4912C552.857 84.6791 561.1 110.543 576.066 108.006C594.421 83.8094 626.151 80.9124 641.7 110.797C681.339 194.94 644.391 125.215 608.385 127.218C581.936 135.731 635.794 137.622 643.054 145.864C682.994 180.843 640.766 159.018 618.572 158.397C651.26 159.652 673.151 178.425 653.354 206.025C644.166 190.497 608.363 155.318 594.294 175.315C613.733 185.673 645.718 190.467 652.203 213.964C646.079 226.509 634.903 234.285 626.509 242.537C639.866 287.094 630.536 338.949 654.215 377.77C663.466 398.473 636.679 363.891 644.772 379.1C664.024 388.321 634.033 468.048 641.591 501.661C639.927 531.5 626.742 696.815 611.257 601.639C608.663 604.1 617.988 634.618 607.4 626.561C606.272 620.5 607.385 594.606 602.848 610.173C600.206 616.833 597.045 641.673 591.691 626.621C594.666 565.494 578.824 494.37 515.572 470.948C478.379 457.109 498.906 468.048 492.209 492.315C478.388 515.039 460.942 509.103 470.606 482.712C470.509 477.761 479.542 458.142 472.703 468.861C466.848 481.603 467.475 496.582 465.566 509.53C457.824 509.973 434.809 515.588 438.945 503.018C436.93 511.079 426.612 508.327 415.936 507.064C401.476 503.464 398.291 507.909 403.963 495.642C400.709 498.215 392.8 509.664 391.082 503.667Z" fill="#48652A"/>
<path fill-rule="evenodd" clip-rule="evenodd" d="M591.867 229.057C591.875 229.057 591.87 229.057 591.867 229.057C591.87 229.055 591.875 229.055 591.867 229.057Z" fill="#48652A"/>
<path fill-rule="evenodd" clip-rule="evenodd" d="M452.848 429.403C452.839 429.388 452.86 429.385 452.873 429.379L452.848 429.403Z" fill="#48652A"/>
<path fill-rule="evenodd" clip-rule="evenodd" d="M702.437 250.087C702.449 250.078 702.446 250.078 702.437 250.087C702.428 250.066 702.44 250.063 702.437 250.087Z" fill="#48652A"/>
<path fill-rule="evenodd" clip-rule="evenodd" d="M702.465 250.072C702.456 250.078 702.447 250.078 702.438 250.087C702.438 250.087 702.471 250.063 702.465 250.072Z" fill="#48652A"/>
<path fill-rule="evenodd" clip-rule="evenodd" d="M650.157 531.642C650.303 531.594 650.421 531.464 650.609 531.327C650.248 530.785 649.566 531.664 650.157 531.642ZM734.55 399.873C734.832 399.967 735.444 399.706 735.302 399.394C735.017 399.494 734.799 399.712 734.55 399.873ZM718.341 405.348C722.726 404.682 729.52 402.539 734.132 400.197C728.844 401.321 723.092 402.727 718.341 405.348ZM707.332 414.182C708.226 415.673 713.159 410.491 713.886 408.991C711.683 408.482 709.468 412.815 707.332 414.182ZM709.092 404.536C716.244 400.315 728.12 398.427 735.199 393.824C731.15 384.845 709.141 394.97 709.092 404.536ZM651.411 559.212C670.059 514.267 691.665 467.018 724.002 430.936C716.48 429.494 705.241 456.712 703.865 444.224C701.144 425.461 763.971 400.509 719.417 418.5C708.108 428.876 694.135 447.391 704.232 420.315C703.668 415.339 700.435 428.697 699.683 425.079C690.635 365.039 748.829 395.252 754.159 367.985C746.62 360.703 731.605 362.761 734.974 348.379C737.702 336.511 750.608 307.72 734.089 334.042C738.211 367.355 714.238 374.242 720.202 337.238C726.311 322.832 746.105 297.599 724.947 324.305C713.641 334.484 718.017 350.848 717.996 361.767C675.22 359.394 663.396 513.885 651.411 559.212ZM724.868 447.261C732.656 448.482 740.705 438.482 745.005 433.058C741.608 425.964 721.902 441.464 724.868 447.261ZM731.532 455.552C735.408 449.327 740.577 445.245 745.783 441.188C740.429 442.491 731.738 449.621 731.532 455.552ZM749.08 392.382C750.117 393.642 752.835 400.918 753.05 396.982C749.811 391.806 741.662 381.421 749.08 392.382ZM749.102 439.618C750.777 438.964 756.441 433.561 753.147 434.83C752.08 435.882 745.444 439.552 749.102 439.618ZM756.332 391.406C768.48 399.045 797.199 392.588 769.541 387.009C767.299 385.712 751.899 385.461 756.332 391.406ZM762.574 421.748C767.041 434.327 767.174 466.688 768.18 439.039C793.189 457.17 759.914 431.039 762.574 421.748ZM765.52 487.739C766.562 487.094 767.489 486.361 766.05 485.588C765.932 486.3 765.086 487.185 765.52 487.739ZM769.938 460.733C771.011 462.63 775.765 470.597 776.747 467.055C776.511 466.376 770.08 458.848 769.938 460.733ZM780.402 463.742C787.383 472.342 784.22 455.376 778.547 454.073C769.108 451.403 777.532 460.794 780.402 463.742ZM767.511 353.709C764.295 348.761 764.208 331.596 758.502 331.423C761.88 336.902 769.271 370.47 767.511 353.709ZM767.265 308.581C769.135 307.438 772.959 310.875 774.556 308.378C772.511 306.484 760.829 305.56 767.265 308.581ZM760.174 306.532C760.196 306.602 760.271 306.657 760.341 306.738C760.495 306.517 760.232 306.242 760.174 306.532ZM779.789 302.917C806.28 307.82 788.617 290.635 772.871 292.242C749.032 293.596 766.438 302.596 779.789 302.917ZM755.65 344.099C750.011 335.366 747.211 354.627 749.568 359.118C756.471 364.876 757.411 347.809 755.65 344.099ZM755.68 318.375C752.232 314.932 750.623 302.32 747.396 303.317C745.808 307.145 761.311 333.881 755.68 318.375ZM748.886 280.635C748.832 280.596 748.686 280.696 748.502 280.766C748.753 281.238 749.205 281.008 748.886 280.635ZM746.847 280.566C746.053 281.535 746.532 282.12 747.065 283.014C748.059 282.026 747.886 281.575 746.847 280.566ZM745.999 300.332C743.699 297.46 735.738 281.481 735.274 287.602C737.699 289.017 744.959 308.02 745.999 300.332ZM719.495 278.945C718.317 283.332 714.744 289.66 715.28 292.087C715.532 293.22 721.371 282.214 719.495 278.945ZM711.05 313.775C706.659 320.854 695.896 342.311 702.426 345.842C701.35 337.923 733.956 297.278 711.05 313.775ZM708.05 301.499C706.923 303.202 701.874 306.02 703.817 307.445C705.105 306.529 710.011 301.505 708.05 301.499ZM697.502 252.92C694.026 275.296 668.459 291.002 666.256 312.699C673.514 291.054 694.523 275.293 697.502 252.92ZM632.291 632.2C650.645 539.297 658.117 446.57 694.795 359.985C675.92 349.855 690.838 325.735 700.344 312.384C689.389 319.72 683.102 338.823 683.714 352.458C659.12 334.269 694.014 313.441 701.135 296.175C696.992 274.254 671.677 317.32 673.296 328.017C670.147 363.3 667.432 324.763 665.42 313.848C664.959 369.433 646.133 292.375 676.25 278.923C672.214 251.323 652.953 320.772 655.047 326.829C636.054 298.863 648.915 239.163 687.696 239.614C704.502 247.993 721.195 275.457 733.174 281.629C733.159 274.938 704.468 260.114 726.253 261.169C742.223 257.463 751.962 250.887 728.874 259.111C661.723 254.454 702.744 183.951 758.52 218.596C804.647 251.76 728.168 220.987 720.847 252.235C738.038 254.242 757.574 233.057 777.226 239.842C805.42 257.92 754.714 240.666 752.186 252.569C776.85 236.251 819.92 275.263 773.653 262.669C768.217 261.978 761.838 261.626 756.074 263.599C713.12 290.302 783.656 260.263 795.096 272.854C805.911 286.508 790.371 273.375 783.959 276.363C774.496 276.626 752.75 276.017 750.502 283.093C772.059 276.999 808.265 270.393 801.347 305.923C803.399 330.496 791.38 305.857 777.317 309.096C788.005 312.381 805.865 322.154 796.708 335.005C790.85 328.481 777.186 317.054 768.732 323.387C776.729 330.399 808.426 338.16 788.838 352.888C784.968 339.357 751.799 327.86 777.626 341.405C797.317 351.809 780.041 365.364 778.511 377.594C792.886 390.333 809.647 434.248 778.889 412.785C750.032 411.252 804.747 417.691 795.389 432.679C785.744 422.615 799.359 438.712 794.008 446.158C791.28 447.097 787.332 438.4 783.126 437.167C756.244 431.215 800.038 445.236 791.208 454.579C776.792 440.494 788.295 449.982 789.777 460.139C781.75 482.418 780.88 471.203 778.411 474.718C780.526 482.427 767.541 499.315 761.159 499.524C748.999 490.3 764.68 474.345 759.947 470.785C752.065 475.006 754.923 493.236 745.371 480.536C746.902 470.352 754.008 462.8 759.88 454.933C749.326 466.248 729.944 496.261 742.941 461.845C760.756 445.148 751.277 442.242 740.486 461.276C734.877 482.573 723.25 467.742 710.889 457.852C674.365 505.821 645.833 568.83 642.545 631.239C642.103 643.106 637.345 630.736 636.776 631.582C636.724 635.906 629 636.009 632.291 632.2Z" fill="#48652A"/>
<path fill-rule="evenodd" clip-rule="evenodd" d="M768.165 335.279C768.207 335.303 768.186 335.291 768.165 335.279C768.186 335.288 768.204 335.303 768.165 335.279Z" fill="#48652A"/>
<path fill-rule="evenodd" clip-rule="evenodd" d="M768.251 335.305C768.236 335.312 768.242 335.308 768.251 335.305C768.281 335.336 768.26 335.33 768.251 335.305Z" fill="#48652A"/>
<path fill-rule="evenodd" clip-rule="evenodd" d="M665.417 313.844C665.52 313.856 665.65 313.856 665.753 313.868C665.641 313.859 665.529 313.85 665.417 313.844Z" fill="#48652A"/>
<path fill-rule="evenodd" clip-rule="evenodd" d="M699.769 418.221C699.766 418.224 699.769 418.224 699.769 418.221C699.778 418.227 699.772 418.227 699.769 418.221Z" fill="#48652A"/>
<path fill-rule="evenodd" clip-rule="evenodd" d="M768.169 335.279C768.196 335.288 768.22 335.279 768.251 335.306C768.22 335.327 768.196 335.291 768.169 335.279Z" fill="#48652A"/>
<path fill-rule="evenodd" clip-rule="evenodd" d="M401.257 210.85C400.621 210.171 400.788 209.983 401.309 209.435C401.957 209.935 401.703 210.18 401.257 210.85Z" fill="#48652A"/>
<path fill-rule="evenodd" clip-rule="evenodd" d="M401.566 206.943C401.763 206.189 401.912 206.277 402.039 206.946C401.933 207.498 401.715 207.477 401.566 206.943Z" fill="#48652A"/>
<path fill-rule="evenodd" clip-rule="evenodd" d="M419.633 235.992C419.509 236.079 419.569 236.037 419.633 235.992C419.876 236.382 419.776 236.382 419.633 235.992Z" fill="#48652A"/>
<path fill-rule="evenodd" clip-rule="evenodd" d="M419.827 236.376C419.851 236.392 419.873 236.407 419.894 236.422C419.857 236.47 419.845 236.41 419.827 236.376Z" fill="#48652A"/>
<path fill-rule="evenodd" clip-rule="evenodd" d="M762.231 280.26C761.737 280.078 761.816 279.642 762.325 279.72C762.607 279.838 762.682 280.375 762.231 280.26Z" fill="#48652A"/>
<path fill-rule="evenodd" clip-rule="evenodd" d="M762.229 280.26C762.314 280.26 762.405 280.26 762.49 280.257C762.405 280.378 762.326 280.32 762.229 280.26Z" fill="#48652A"/>
<path fill-rule="evenodd" clip-rule="evenodd" d="M415.312 306.745C415.303 306.763 415.264 306.763 415.248 306.757L415.312 306.745Z" fill="#48652A"/>
<path fill-rule="evenodd" clip-rule="evenodd" d="M755.608 281.964C755.76 281.973 755.911 281.982 756.06 281.988C755.787 282.292 755.739 282.388 755.608 281.964Z" fill="#48652A"/>
<path fill-rule="evenodd" clip-rule="evenodd" d="M799.193 280.233C799.178 279.996 799.187 280.115 799.193 280.233C798.884 280.075 798.987 280.115 799.193 280.233Z" fill="#48652A"/>
<path fill-rule="evenodd" clip-rule="evenodd" d="M787.597 278.215C787.627 278.199 787.663 278.16 787.681 278.169C787.903 278.257 787.545 278.39 787.597 278.215Z" fill="#48652A"/>
<path fill-rule="evenodd" clip-rule="evenodd" d="M434.291 436.612C434.236 436.615 434.184 436.618 434.13 436.618C434.145 436.497 434.26 436.5 434.291 436.612Z" fill="#48652A"/>
<path fill-rule="evenodd" clip-rule="evenodd" d="M730.175 251.146C730.12 251.21 730.148 251.176 730.175 251.146C730.344 251.222 730.123 251.413 730.175 251.146Z" fill="#48652A"/>
<path fill-rule="evenodd" clip-rule="evenodd" d="M651.925 205.772C652.049 205.79 651.988 205.781 651.925 205.772C652.031 205.645 652.113 205.587 651.925 205.772Z" fill="#48652A"/>
<path fill-rule="evenodd" clip-rule="evenodd" d="M652.095 205.609C652.08 205.63 652.083 205.6 652.08 205.585L652.095 205.609Z" fill="#48652A"/>
<path fill-rule="evenodd" clip-rule="evenodd" d="M652.383 205.57C652.334 205.434 652.359 205.504 652.383 205.57C652.098 205.625 652.119 205.534 652.383 205.57Z" fill="#48652A"/>
<path fill-rule="evenodd" clip-rule="evenodd" d="M652.116 205.585C652.091 205.585 652.104 205.585 652.116 205.585C652.104 205.606 652.088 205.612 652.116 205.585Z" fill="#48652A"/>
<path fill-rule="evenodd" clip-rule="evenodd" d="M773.393 488.839L773.366 488.791C773.387 488.794 773.393 488.824 773.393 488.839Z" fill="#48652A"/>
<path fill-rule="evenodd" clip-rule="evenodd" d="M637.23 161.725C637.348 161.792 637.294 161.895 637.23 161.992C637.094 161.913 637.179 161.825 637.23 161.725Z" fill="#48652A"/>
<path fill-rule="evenodd" clip-rule="evenodd" d="M546.385 222.565C546.357 222.565 546.333 222.565 546.309 222.562C546.324 222.517 546.357 222.553 546.385 222.565Z" fill="#48652A"/>
<path fill-rule="evenodd" clip-rule="evenodd" d="M546.427 222.589C546.345 222.556 546.445 222.571 546.485 222.571C546.463 222.577 546.442 222.595 546.427 222.589Z" fill="#48652A"/>
<path fill-rule="evenodd" clip-rule="evenodd" d="M494.642 277.413C494.748 277.498 494.854 277.588 494.96 277.673C494.748 277.719 494.73 277.522 494.642 277.413Z" fill="#48652A"/>
<path fill-rule="evenodd" clip-rule="evenodd" d="M494.642 277.413C494.73 277.522 494.748 277.719 494.96 277.673C494.627 277.861 494.521 277.779 494.642 277.413Z" fill="#48652A"/>
<path fill-rule="evenodd" clip-rule="evenodd" d="M456.188 259.713C456.239 259.638 456.297 259.635 456.357 259.701C456.303 259.786 456.251 259.789 456.188 259.713Z" fill="#48652A"/>
<path fill-rule="evenodd" clip-rule="evenodd" d="M456.663 220.68C456.86 220.729 456.897 220.429 457.097 220.477C456.954 220.544 456.809 220.614 456.663 220.68Z" fill="#48652A"/>
<path fill-rule="evenodd" clip-rule="evenodd" d="M457.094 220.476C456.897 220.428 456.86 220.728 456.66 220.679C456.667 220.303 456.803 220.218 457.094 220.476Z" fill="#48652A"/>
<path fill-rule="evenodd" clip-rule="evenodd" d="M502.351 198.314C502.418 197.984 502.521 197.938 502.815 198.175C502.645 198.378 502.506 198.599 502.351 198.314Z" fill="#48652A"/>
<path fill-rule="evenodd" clip-rule="evenodd" d="M559.354 256.695C559.354 256.801 559.351 256.855 559.236 256.777C559.285 256.746 559.312 256.725 559.354 256.695Z" fill="#48652A"/>
<path fill-rule="evenodd" clip-rule="evenodd" d="M559.976 256.325C560.7 256.471 559.957 257.434 559.345 256.828C559.373 256.537 559.824 256.416 559.976 256.325Z" fill="#48652A"/>
<path fill-rule="evenodd" clip-rule="evenodd" d="M561.96 280.488C561.83 280.869 561.694 280.969 561.382 280.591C561.594 280.294 561.836 280.109 561.96 280.488Z" fill="#48652A"/>
<path fill-rule="evenodd" clip-rule="evenodd" d="M561.306 280.736C561.209 280.891 561.16 280.776 561.121 280.652C561.188 280.5 561.26 280.636 561.306 280.736Z" fill="#48652A"/>
<path fill-rule="evenodd" clip-rule="evenodd" d="M560.403 228.259C560.239 228.099 560.191 227.923 560.415 227.78C560.488 227.944 560.473 228.099 560.403 228.259Z" fill="#48652A"/>
<path fill-rule="evenodd" clip-rule="evenodd" d="M591.867 229.046C591.867 229.052 591.867 229.049 591.867 229.046C591.873 229.052 591.879 229.058 591.867 229.046Z" fill="#48652A"/>
<path fill-rule="evenodd" clip-rule="evenodd" d="M591.876 229.055C591.93 229.067 592.072 229.007 592.054 229.073C591.994 229.067 591.936 229.067 591.876 229.055Z" fill="#48652A"/>
<path fill-rule="evenodd" clip-rule="evenodd" d="M591.86 229.058L591.866 229.046C591.866 229.052 591.866 229.058 591.86 229.058Z" fill="#48652A"/>
<path fill-rule="evenodd" clip-rule="evenodd" d="M591.878 229.058C591.963 229.161 591.921 229.112 591.878 229.058C592.009 229.052 592.084 229.079 591.878 229.058Z" fill="#48652A"/>
<path fill-rule="evenodd" clip-rule="evenodd" d="M534.857 143.132L534.942 143.175C534.927 143.22 534.872 143.138 534.857 143.132Z" fill="#48652A"/>
<path fill-rule="evenodd" clip-rule="evenodd" d="M699.51 417.955C699.579 417.964 699.692 418.142 699.776 418.209C699.673 418.161 699.601 418.033 699.51 417.955Z" fill="#48652A"/>
<path fill-rule="evenodd" clip-rule="evenodd" d="M699.511 417.955C699.487 418.006 699.527 418.058 699.505 418.058C699.511 418.061 699.478 417.9 699.511 417.955Z" fill="#48652A"/>
<path fill-rule="evenodd" clip-rule="evenodd" d="M699.639 418.203C699.675 418.221 699.745 418.188 699.766 418.227C699.733 418.221 699.639 418.233 699.639 418.203Z" fill="#48652A"/>
<path fill-rule="evenodd" clip-rule="evenodd" d="M699.511 418.064C699.508 418.209 699.653 418.221 699.765 418.227C699.317 419.348 698.708 417.927 699.511 418.064Z" fill="#48652A"/>
<path fill-rule="evenodd" clip-rule="evenodd" d="M699.753 418.206C699.765 418.218 699.759 418.212 699.753 418.206C699.771 418.206 699.783 418.206 699.753 418.206Z" fill="#48652A"/>
<path fill-rule="evenodd" clip-rule="evenodd" d="M699.498 417.942C699.501 417.939 699.507 417.936 699.51 417.93C699.51 417.949 699.513 417.961 699.498 417.942Z" fill="#48652A"/>
<path fill-rule="evenodd" clip-rule="evenodd" d="M699.51 418.064C699.468 417.839 699.674 418.145 699.752 418.206C699.64 418.224 699.537 418.179 699.51 418.064Z" fill="#48652A"/>
<path fill-rule="evenodd" clip-rule="evenodd" d="M699.512 418.064C699.527 418.136 699.575 418.179 699.639 418.203C699.554 418.197 699.515 418.149 699.512 418.064Z" fill="#48652A"/>
<path fill-rule="evenodd" clip-rule="evenodd" d="M717.245 350.797C717.314 350.748 717.393 350.679 717.417 350.803C717.351 350.894 717.308 350.894 717.245 350.797Z" fill="#48652A"/>
<path fill-rule="evenodd" clip-rule="evenodd" d="M705.636 449.182C705.721 449.085 705.809 448.991 705.891 448.894C705.927 449.097 705.767 449.124 705.636 449.182Z" fill="#48652A"/>
<path fill-rule="evenodd" clip-rule="evenodd" d="M705.635 449.182C705.765 449.124 705.926 449.097 705.89 448.894C706.175 449.191 705.923 449.194 705.635 449.182Z" fill="#48652A"/>
<path fill-rule="evenodd" clip-rule="evenodd" d="M702.984 343.301C702.896 343.392 702.809 343.486 702.724 343.58C702.539 343.228 702.951 343.446 702.984 343.301Z" fill="#48652A"/>
<path fill-rule="evenodd" clip-rule="evenodd" d="M702.985 343.301C702.951 343.446 702.539 343.228 702.724 343.58C702.276 343.134 702.497 343.128 702.985 343.301Z" fill="#48652A"/>
<path fill-rule="evenodd" clip-rule="evenodd" d="M735.463 258.047C735.042 258.235 734.757 258.538 734.639 258.065C734.951 257.717 735.054 257.532 735.463 258.047Z" fill="#48652A"/>
<path fill-rule="evenodd" clip-rule="evenodd" d="M749.158 355.427C749.173 355.364 749.212 355.306 749.243 355.242C749.418 355.312 749.24 355.627 749.158 355.427Z" fill="#48652A"/>
<path fill-rule="evenodd" clip-rule="evenodd" d="M766.275 434.7C766.178 434.77 766.072 434.824 766.002 434.7C766.108 434.645 766.196 434.558 766.275 434.7Z" fill="#48652A"/>
<path fill-rule="evenodd" clip-rule="evenodd" d="M765.29 351.876C765.302 351.882 765.293 351.882 765.29 351.876C765.281 351.858 765.299 351.882 765.29 351.876Z" fill="#48652A"/>
<path fill-rule="evenodd" clip-rule="evenodd" d="M765.767 350.673C765.922 350.803 766.073 350.93 766.225 351.058C765.919 351.115 765.779 350.973 765.767 350.673Z" fill="#48652A"/>
<path fill-rule="evenodd" clip-rule="evenodd" d="M765.305 351.885C765.069 351.406 764.929 350.797 765.765 350.673C766.308 351.139 766.369 352.648 765.305 351.885Z" fill="#48652A"/>
<path fill-rule="evenodd" clip-rule="evenodd" d="M745.175 302.783C745.127 302.61 745 302.501 744.881 302.377C745.278 302.307 745.394 302.434 745.175 302.783Z" fill="#48652A"/>
<path fill-rule="evenodd" clip-rule="evenodd" d="M127.514 419.964C103.605 456.985 142.647 543.912 203.765 582.503C264.88 621.091 333.739 618.442 357.648 581.424C381.561 544.406 351.397 483.115 290.283 444.527C229.169 405.942 151.427 382.945 127.514 419.964Z" fill="#B28A64"/>
<path fill-rule="evenodd" clip-rule="evenodd" d="M393.788 713.364C394.836 713.364 395.83 713.064 396.682 712.476C400.376 709.924 404.982 706.746 369.979 639.509C353.433 607.724 335.588 576.273 335.412 575.955C334.342 574.079 331.958 573.418 330.064 574.479C328.182 575.549 327.518 577.936 328.588 579.818C356.57 629.097 384.758 683.655 390.312 701.903C377.106 686.761 342.558 629.764 312.591 575.982C311.539 574.103 309.161 573.406 307.258 574.467C305.367 575.515 304.685 577.9 305.736 579.791C327.533 618.906 379.618 710.215 392.494 713.215C392.933 713.312 393.364 713.364 393.788 713.364Z" fill="#3A332D"/>
<path fill-rule="evenodd" clip-rule="evenodd" d="M195.261 725.485C220.537 725.485 250.824 612.191 256.634 589.479C257.165 587.412 255.937 585.303 253.885 584.767C251.849 584.215 249.756 585.473 249.228 587.545C228.353 669.048 205.396 717.749 195.261 717.749C195.069 717.749 194.629 717.748 193.921 716.921C182.948 704.048 191.242 615.83 199.046 563.258C199.36 561.145 197.917 559.173 195.827 558.858C193.665 558.564 191.789 559.997 191.475 562.109C189.355 576.388 171.255 702.176 188.126 721.973C190.599 724.879 193.37 725.485 195.261 725.485Z" fill="#3A332D"/>
<path fill-rule="evenodd" clip-rule="evenodd" d="M97.1054 693.645C99.5899 693.645 104.752 693.645 188.498 572.164C189.721 570.388 189.305 567.933 187.571 566.685C185.836 565.439 183.428 565.858 182.209 567.63C161.286 597.985 130.632 641.521 111.782 666.567C127.152 638.024 155.155 589.667 174.813 556.451C175.913 554.591 175.332 552.179 173.513 551.055C171.694 549.921 169.332 550.524 168.232 552.379C89.8439 684.833 92.1517 689.015 93.5323 691.515C94.2133 692.748 95.7169 693.645 97.1054 693.645Z" fill="#3A332D"/>
<path fill-rule="evenodd" clip-rule="evenodd" d="M126.061 370.203C93.1742 421.706 131.822 505.173 212.368 556.621C292.917 608.076 384.876 608.027 417.758 556.524C450.642 505.021 412 421.558 331.449 370.106C250.902 318.658 158.944 318.694 126.061 370.203Z" fill="#EABD91"/>
<path fill-rule="evenodd" clip-rule="evenodd" d="M408.024 558.818C409.076 558.818 410.085 558.139 410.551 556.982C410.624 556.797 412.415 552.339 414.239 544.591C414.633 542.912 413.752 541.191 412.273 540.745C410.758 540.291 409.258 541.3 408.87 542.973C407.176 550.161 405.509 554.33 405.491 554.367C404.858 555.948 405.476 557.815 406.87 558.533C407.245 558.73 407.636 558.818 408.024 558.818Z" fill="#CB9A6E"/>
<path fill-rule="evenodd" clip-rule="evenodd" d="M196.045 344.17C196.135 344.17 196.228 344.167 196.322 344.158C203.818 343.449 211.451 343.285 219.868 343.755C221.48 343.849 222.865 342.603 222.955 340.979C223.045 339.349 221.812 337.964 220.196 337.873C211.795 337.406 203.615 337.555 195.776 338.294C194.168 338.445 192.985 339.882 193.134 341.5C193.278 343.027 194.55 344.17 196.045 344.17ZM267.098 352.676C268.339 352.676 269.49 351.876 269.888 350.621C270.376 349.073 269.525 347.415 267.984 346.924C260.125 344.412 252.187 342.385 244.394 340.888C242.81 340.57 241.276 341.63 240.972 343.227C240.668 344.824 241.706 346.367 243.294 346.67C250.86 348.121 258.572 350.097 266.212 352.539C266.509 352.633 266.805 352.676 267.098 352.676ZM311.036 371.945C312.064 371.945 313.064 371.4 313.603 370.43C314.382 369.009 313.87 367.215 312.458 366.427C305.245 362.406 297.93 358.752 290.715 355.573C289.243 354.921 287.511 355.597 286.859 357.088C286.208 358.576 286.882 360.309 288.365 360.961C295.417 364.07 302.57 367.639 309.618 371.576C310.07 371.827 310.558 371.945 311.036 371.945ZM350.967 398.688C351.827 398.688 352.682 398.309 353.258 397.573C354.264 396.297 354.052 394.449 352.788 393.439C349.979 391.194 347.055 388.961 344.015 386.742C340.458 384.142 336.8 381.579 333.155 379.127C331.809 378.23 329.991 378.594 329.097 379.945C328.2 381.294 328.564 383.124 329.909 384.027C333.491 386.433 337.082 388.945 340.579 391.506C343.552 393.676 346.403 395.858 349.142 398.049C349.685 398.482 350.327 398.688 350.967 398.688ZM384.888 432.697C385.512 432.697 386.142 432.497 386.676 432.082C387.955 431.085 388.185 429.236 387.194 427.952C382.379 421.694 376.933 415.533 371 409.633C369.845 408.491 367.991 408.497 366.861 409.655C365.724 410.809 365.733 412.676 366.885 413.818C372.63 419.536 377.906 425.506 382.57 431.555C383.145 432.306 384.012 432.697 384.888 432.697ZM407.779 474.888C408.091 474.888 408.409 474.836 408.715 474.73C410.248 474.212 411.07 472.539 410.552 471C407.982 463.358 404.648 455.779 400.655 448.461C399.873 447.036 398.094 446.512 396.679 447.3C395.261 448.085 394.745 449.876 395.521 451.3C399.358 458.309 402.545 465.576 405.009 472.885C405.418 474.115 406.558 474.888 407.779 474.888ZM414.239 522.455C415.779 522.455 417.07 521.242 417.158 519.679C417.291 517.327 417.364 514.888 417.364 512.367C417.364 506.576 416.967 500.739 416.185 495.012C415.964 493.403 414.518 492.245 412.885 492.497C411.285 492.721 410.164 494.203 410.385 495.818C411.13 501.273 411.509 506.842 411.509 512.367C411.509 514.773 411.436 517.1 411.312 519.342C411.221 520.967 412.455 522.361 414.067 522.452C414.124 522.455 414.179 522.455 414.239 522.455Z" fill="#CB9A6E"/>
<path fill-rule="evenodd" clip-rule="evenodd" d="M159.913 352.758C160.368 352.758 160.834 352.673 161.272 352.488C161.314 352.473 165.33 350.821 172.638 349.036C174.316 348.627 175.292 347.118 174.821 345.667C174.354 344.215 172.643 343.349 170.931 343.776C163.03 345.7 158.719 347.488 158.543 347.561C156.974 348.215 156.318 349.845 157.067 351.206C157.609 352.185 158.74 352.758 159.913 352.758Z" fill="#CB9A6E"/>
<path fill-rule="evenodd" clip-rule="evenodd" d="M384.339 570.939C385.503 570.939 386.639 570.445 387.248 569.57C387.358 569.415 389.891 565.764 392.9 559.43C393.558 558.048 392.694 556.497 390.973 555.97C389.248 555.433 387.318 556.133 386.664 557.518C383.842 563.445 381.448 566.912 381.427 566.948C380.527 568.239 381.097 569.873 382.709 570.597C383.224 570.827 383.785 570.939 384.339 570.939Z" fill="#CB9A6E"/>
<path fill-rule="evenodd" clip-rule="evenodd" d="M180.898 366.821C181.062 366.821 181.226 366.809 181.39 366.779C189.042 365.491 196.991 364.779 205.018 364.655C206.636 364.63 207.927 363.303 207.903 361.694C207.876 360.094 206.57 358.818 204.971 358.818H204.928C196.608 358.952 188.354 359.691 180.413 361.027C178.818 361.291 177.739 362.803 178.012 364.388C178.251 365.812 179.494 366.821 180.898 366.821ZM252.867 370.467C254.172 370.467 255.369 369.591 255.705 368.273C256.104 366.712 255.158 365.121 253.59 364.724C245.543 362.685 237.43 361.152 229.474 360.167C227.808 359.979 226.397 361.106 226.201 362.7C226.002 364.303 227.14 365.761 228.747 365.958C236.465 366.909 244.335 368.397 252.139 370.376C252.382 370.439 252.628 370.467 252.867 370.467ZM298.057 387.4C299.136 387.4 300.172 386.809 300.688 385.782C301.408 384.336 300.817 382.588 299.367 381.867C291.922 378.185 284.384 374.891 276.952 372.091C275.462 371.515 273.745 372.276 273.175 373.788C272.6 375.294 273.358 376.979 274.875 377.548C282.124 380.279 289.482 383.494 296.755 387.097C297.173 387.303 297.619 387.4 298.057 387.4ZM339.255 412.509C340.142 412.509 341.027 412.109 341.606 411.348C342.579 410.061 342.315 408.23 341.021 407.264C337.861 404.894 334.482 402.515 330.994 400.191C327.542 397.9 324.121 395.727 320.739 393.667C319.352 392.815 317.549 393.258 316.703 394.63C315.864 396.009 316.294 397.806 317.673 398.645C320.997 400.664 324.345 402.8 327.736 405.045C331.133 407.306 334.418 409.621 337.497 411.927C338.024 412.318 338.645 412.509 339.255 412.509ZM373.4 446.355C373.997 446.355 374.6 446.173 375.121 445.803C376.43 444.852 376.724 443.027 375.773 441.724C371.106 435.327 365.685 429.085 359.661 423.173C358.512 422.048 356.645 422.048 355.512 423.203C354.376 424.351 354.391 426.2 355.542 427.33C361.339 433.018 366.545 439.015 371.024 445.152C371.597 445.939 372.494 446.355 373.4 446.355ZM393.433 489.791C393.649 489.791 393.87 489.77 394.085 489.721C395.667 489.367 396.655 487.809 396.3 486.233C394.494 478.255 391.803 470.403 388.315 462.906C387.633 461.439 385.888 460.818 384.421 461.488C382.952 462.164 382.315 463.9 382.991 465.361C386.309 472.485 388.861 479.939 390.579 487.515C390.885 488.873 392.097 489.791 393.433 489.791ZM394.188 537.606C395.576 537.606 396.812 536.618 397.07 535.212C398.47 527.558 399.182 519.836 399.182 512.261L399.17 510.697C399.145 509.1 397.836 507.824 396.236 507.824H396.194C394.573 507.845 393.282 509.173 393.306 510.785L393.318 512.261C393.318 519.485 392.636 526.858 391.3 534.167C391.006 535.755 392.067 537.267 393.658 537.564C393.836 537.591 394.012 537.606 394.188 537.606Z" fill="#CB9A6E"/>
<path fill-rule="evenodd" clip-rule="evenodd" d="M147.316 377C147.766 377 148.219 376.891 148.637 376.667C148.669 376.648 151.979 374.891 158.022 372.818C159.415 372.336 160.132 370.888 159.625 369.576C159.125 368.261 157.583 367.588 156.195 368.061C149.672 370.3 146.131 372.194 145.984 372.273C144.703 372.967 144.257 374.506 144.989 375.721C145.481 376.536 146.384 377 147.316 377Z" fill="#CB9A6E"/>
<path fill-rule="evenodd" clip-rule="evenodd" d="M363.118 577C364.294 577 365.43 576.494 366.036 575.603C366.142 575.455 368.618 571.791 371.679 565.515C372.348 564.133 371.509 562.576 369.797 562.03C368.091 561.497 366.154 562.167 365.476 563.549C362.594 569.476 360.224 572.991 360.197 573.027C359.318 574.324 359.903 575.958 361.518 576.667C362.024 576.897 362.576 577 363.118 577Z" fill="#CB9A6E"/>
<path fill-rule="evenodd" clip-rule="evenodd" d="M240.511 388.942C241.88 388.942 243.098 387.973 243.37 386.579C243.677 384.985 242.65 383.452 241.071 383.139C233.239 381.6 225.426 380.558 217.838 380.033C216.356 379.961 214.839 381.136 214.73 382.755C214.622 384.37 215.831 385.767 217.441 385.876C224.784 386.385 232.356 387.394 239.943 388.888C240.134 388.921 240.325 388.942 240.511 388.942ZM171.791 389.591C172.028 389.591 172.261 389.564 172.499 389.503C179.619 387.724 187.118 386.524 194.795 385.93C196.401 385.806 197.603 384.4 197.482 382.788C197.358 381.17 195.997 380.018 194.348 380.088C186.348 380.709 178.527 381.964 171.091 383.818C169.527 384.209 168.575 385.797 168.967 387.367C169.294 388.7 170.484 389.591 171.791 389.591ZM284.579 402.509C285.726 402.509 286.811 401.824 287.274 400.697C287.892 399.2 287.181 397.488 285.691 396.87C278.333 393.824 270.944 391.139 263.737 388.903C262.181 388.442 260.56 389.294 260.085 390.836C259.611 392.382 260.474 394.021 262.01 394.503C269.053 396.685 276.272 399.306 283.466 402.285C283.832 402.439 284.205 402.509 284.579 402.509ZM325.558 423.694C326.503 423.694 327.436 423.233 327.994 422.382C328.888 421.036 328.518 419.218 327.173 418.324C322.346 415.115 317.133 412.03 311.691 409.148C310.073 408.294 308.461 407.452 306.861 406.645C305.424 405.915 303.667 406.5 302.942 407.945C302.215 409.385 302.8 411.152 304.239 411.879C305.803 412.67 307.382 413.488 308.967 414.33C314.245 417.121 319.288 420.106 323.952 423.206C324.449 423.539 325.009 423.694 325.558 423.694ZM359.067 455.212C359.658 455.212 360.252 455.03 360.77 454.658C362.076 453.712 362.373 451.879 361.43 450.567C356.964 444.342 351.682 438.379 345.727 432.855C344.552 431.761 342.697 431.821 341.606 433.018C340.512 434.203 340.582 436.055 341.767 437.158C347.433 442.412 352.455 448.085 356.697 453.994C357.267 454.785 358.161 455.212 359.067 455.212ZM376.688 497.603C376.849 497.603 377.012 497.591 377.176 497.561C378.761 497.294 379.833 495.785 379.567 494.191C378.249 486.273 376.046 478.576 373.024 471.315C372.403 469.818 370.691 469.118 369.209 469.739C367.724 470.367 367.021 472.082 367.639 473.573C370.488 480.424 372.567 487.685 373.815 495.158C374.052 496.588 375.288 497.603 376.688 497.603ZM375.094 543.667C376.436 543.667 377.646 542.733 377.939 541.364C379.664 533.47 380.691 525.573 380.997 517.9C381.064 516.279 379.812 514.918 378.2 514.855C376.518 514.776 375.233 516.045 375.173 517.661C374.876 524.994 373.891 532.548 372.242 540.112C371.897 541.691 372.894 543.252 374.467 543.6C374.679 543.642 374.888 543.667 375.094 543.667Z" fill="#CB9A6E"/>
<path fill-rule="evenodd" clip-rule="evenodd" d="M138.329 404.273C138.918 404.273 139.511 404.07 140.015 403.655C140.049 403.627 143.17 401.048 149.13 397.903C150.508 397.173 151.087 395.364 150.42 393.858C149.752 392.355 148.092 391.73 146.706 392.452C140.178 395.897 136.772 398.727 136.631 398.845C135.415 399.867 135.186 401.764 136.12 403.091C136.668 403.864 137.491 404.273 138.329 404.273Z" fill="#CB9A6E"/>
<path fill-rule="evenodd" clip-rule="evenodd" d="M338.751 580.03C339.836 580.03 340.897 579.564 341.5 578.718C341.606 578.567 344.203 574.909 347.4 568.679C348.106 567.3 347.361 565.7 345.736 565.106C344.094 564.503 342.215 565.145 341.518 566.515C338.503 572.382 336.027 575.873 336.006 575.906C335.094 577.194 335.579 578.864 337.094 579.639C337.609 579.903 338.185 580.03 338.751 580.03Z" fill="#CB9A6E"/>
<path fill-rule="evenodd" clip-rule="evenodd" d="M241.08 410.83C242.405 410.83 243.599 409.912 243.905 408.548C244.27 406.97 243.289 405.391 241.727 405.03C233.487 403.109 225.236 401.836 217.206 401.242C215.632 401.212 214.214 402.339 214.094 403.961C213.977 405.579 215.179 406.988 216.78 407.106C224.519 407.676 232.468 408.906 240.425 410.752C240.646 410.806 240.863 410.83 241.08 410.83ZM168.756 412.191C169.031 412.191 169.31 412.152 169.593 412.061C177.065 409.788 184.925 408.221 192.936 407.4C194.533 407.236 195.7 405.797 195.537 404.182C195.374 402.567 193.897 401.364 192.355 401.552C183.972 402.412 175.751 404.055 167.919 406.436C166.384 406.903 165.508 408.542 165.973 410.097C166.353 411.373 167.508 412.191 168.756 412.191ZM286.72 427.833C287.79 427.833 288.809 427.242 289.32 426.215C290.045 424.764 289.464 422.997 288.03 422.267C280.488 418.43 272.88 415.064 265.415 412.248C263.919 411.694 262.241 412.461 261.675 413.982C261.117 415.5 261.881 417.197 263.388 417.764C270.651 420.5 278.066 423.785 285.418 427.521C285.84 427.733 286.282 427.833 286.72 427.833ZM326.627 455.773C327.373 455.773 328.109 455.491 328.679 454.918C329.818 453.773 329.821 451.912 328.691 450.764C323.112 445.076 316.639 439.7 309.457 434.776C308.13 433.864 306.324 434.218 305.421 435.564C304.518 436.903 304.867 438.733 306.194 439.648C313.07 444.361 319.251 449.491 324.567 454.903C325.133 455.482 325.885 455.773 326.627 455.773ZM350.918 497.845C351.16 497.845 351.409 497.815 351.648 497.752C353.206 497.339 354.136 495.736 353.73 494.17C351.621 485.97 348.376 478.085 344.076 470.73C343.257 469.339 341.485 468.864 340.097 469.7C338.712 470.521 338.254 472.324 339.073 473.724C343.091 480.603 346.13 487.982 348.106 495.649C348.448 496.973 349.627 497.845 350.918 497.845ZM350.967 546.697C352.288 546.697 353.491 545.776 353.797 544.409C355.706 535.903 356.703 527.47 356.757 519.342C356.77 517.718 355.476 516.394 353.87 516.382H353.851C352.254 516.382 350.954 517.688 350.945 519.303C350.894 527.009 349.948 535.015 348.127 543.106C347.77 544.685 348.751 546.267 350.321 546.627C350.533 546.673 350.751 546.697 350.967 546.697Z" fill="#CB9A6E"/>
<path fill-rule="evenodd" clip-rule="evenodd" d="M135.358 428.515C136.002 428.515 136.654 428.291 137.184 427.839C137.214 427.812 140.346 425.155 146.216 421.806C147.587 421.021 148.068 419.261 147.303 417.864C146.535 416.47 144.804 415.994 143.437 416.758C137.047 420.406 133.665 423.294 133.525 423.418C132.325 424.442 132.173 426.267 133.184 427.485C133.745 428.167 134.548 428.515 135.358 428.515Z" fill="#CB9A6E"/>
<path fill-rule="evenodd" clip-rule="evenodd" d="M317.685 580.03C317.685 580.03 352.433 500.321 283.599 448.512C214.762 396.703 138.576 448.512 138.576 448.512" fill="#E8BB8F"/>
<path fill-rule="evenodd" clip-rule="evenodd" d="M179.673 448.4C199.997 428.076 242.165 437.294 273.864 468.985C305.554 500.685 314.773 542.852 294.448 563.176C274.123 583.5 231.956 574.282 200.257 542.591C168.566 510.891 159.349 468.724 179.673 448.4Z" fill="#FEC1C7"/>
<path fill-rule="evenodd" clip-rule="evenodd" d="M239.85 425.364C239.85 425.364 255.798 414.448 273.004 415.291C290.21 416.13 303.277 421.585 308.077 448.027C308.077 448.027 346.868 455.161 385.476 491.252C424.088 527.342 425.767 528.603 420.73 557.982C415.694 587.358 401.006 623.03 401.006 623.03L395.921 678.248C395.921 678.248 403.033 697.836 412.36 704.13C421.688 710.427 427.6 713.458 422.779 717.888C417.957 722.318 416.791 716.958 407.464 717.888C398.136 718.821 397.203 713.927 397.203 713.927C397.203 713.927 408.163 740.276 427.518 751.7C427.518 751.7 434.045 757.764 427.518 760.561C420.988 763.361 402.8 763.127 394.173 757.297C385.545 751.467 367.821 736.542 361.995 734.909C356.165 733.279 358.965 724.652 358.965 724.652L367.357 701.333C367.357 701.333 365.026 698.3 358.498 696.203C351.968 694.106 348.471 685.245 349.171 681.979C349.871 678.712 361.529 662.161 361.762 650.033C361.762 650.033 355.932 633.479 348.004 618.785C340.077 604.094 350.335 568.418 356.165 558.858C356.165 558.858 347.071 560.258 329.813 561.658C312.559 563.055 253.953 567.261 219.583 548.33C185.21 529.397 188.595 465.209 239.85 425.364Z" fill="#FFC280"/>
<path fill-rule="evenodd" clip-rule="evenodd" d="M286.288 472.727C297.564 475.315 308.703 478.588 319.594 482.557C330.473 486.551 341.194 491.069 351.44 496.566C361.658 502.085 371.539 508.375 380.342 516.072C389.17 523.681 396.727 533.054 401.379 543.9L401.457 544.085L401.46 544.288C401.542 557.412 401.494 570.533 401.421 583.657C401.421 596.781 401.154 609.909 401.006 623.033C400.667 609.912 400.209 596.791 400.018 583.666C399.757 570.548 399.518 557.427 399.412 544.303L399.491 544.691C394.945 534.242 387.479 525.257 378.867 517.748C370.297 510.136 360.582 503.842 350.5 498.3C340.376 492.821 329.903 487.942 319.137 483.766C308.379 479.597 297.467 475.721 286.288 472.727Z" fill="#7A3710"/>
<path fill-rule="evenodd" clip-rule="evenodd" d="M361.762 650.033C363.653 654.003 365.11 658.158 366.388 662.361C367.642 666.579 368.63 670.879 369.324 675.236C369.885 679.606 370.348 684.021 370.088 688.448C369.824 692.855 369.076 697.279 367.357 701.336C368.476 697.082 368.9 692.752 368.921 688.418C368.939 684.082 368.494 679.752 367.827 675.464C367.267 671.152 366.273 666.906 365.271 662.667C364.234 658.43 363.065 654.221 361.762 650.033Z" fill="black"/>
<path fill-rule="evenodd" clip-rule="evenodd" d="M395.924 678.249C395.542 684.264 395.215 690.224 395.273 696.185C395.33 702.146 395.757 708.067 397.206 713.924C395.9 711.197 395.103 708.236 394.548 705.255C394.009 702.264 393.821 699.227 393.757 696.2C393.748 693.17 393.9 690.145 394.27 687.145C394.633 684.145 395.115 681.161 395.924 678.249Z" fill="black"/>
<path fill-rule="evenodd" clip-rule="evenodd" d="M355.171 559.002C355.374 557.29 356.168 555.793 357.117 554.453C358.114 553.144 359.329 551.962 360.896 551.259C360.544 552.053 360.099 552.72 359.677 553.399C359.262 554.084 358.79 554.711 358.335 555.353C357.374 556.608 356.42 557.835 355.171 559.002Z" fill="#7A3710"/>
<path fill-rule="evenodd" clip-rule="evenodd" d="M271.783 411.849C271.783 411.849 245.268 416.643 236.044 424.8C226.817 432.961 171.062 470.261 191.55 519.873C212.041 569.485 292.111 567.803 349.12 559.77C349.12 559.77 336.971 608.231 335.883 635.388C334.798 662.545 330.453 685.361 330.453 685.361C330.453 685.361 380.839 690.43 402.512 686.806V656.027C402.512 656.027 413.736 656.752 414.824 654.215C414.824 654.215 426.048 543.773 423.876 534.722C421.703 525.667 370.07 459.825 308.077 448.025L303.853 429.743C303.853 429.743 302.992 411.767 271.783 411.849Z" fill="#72B3E7"/>
<path fill-rule="evenodd" clip-rule="evenodd" d="M286.288 472.727C297.609 475.148 308.755 478.442 319.676 482.348C330.567 486.324 341.34 490.76 351.6 496.275C361.855 501.769 371.748 508.084 380.606 515.772C389.421 523.445 397.106 532.803 401.694 543.769L401.797 544.009L401.8 544.269C402.13 562.894 402.285 581.518 402.409 600.145C402.588 618.769 402.588 637.4 402.512 656.027C401.745 637.415 401.054 618.797 400.539 600.181C399.973 581.563 399.433 562.942 399.073 544.321L399.176 544.821C394.733 534.394 387.167 525.542 378.639 518.012C370.088 510.436 360.418 504.112 350.352 498.588C340.252 493.097 329.803 488.181 319.067 483.957C308.334 479.73 297.424 475.885 286.288 472.727Z" fill="#628DB0"/>
<path fill-rule="evenodd" clip-rule="evenodd" d="M364.703 704.63C364.703 704.63 365.976 704.442 366.091 704.855C366.2 705.248 365.34 706.939 365.34 706.939C367.109 713.427 371.988 731.83 372.515 739.182C372.612 740.542 373.33 741.758 374.461 742.515L393.949 755.551C395.691 756.715 398.03 756.245 399.188 754.5C402.333 749.764 408.812 741.533 415.6 742.012C415.6 742.012 441.036 755.958 441.036 757.73C441.036 759.5 425.018 769.015 395.855 760.827C395.855 760.827 372.449 744.233 364.703 739.367C356.958 734.497 351.649 732.285 355.412 723.436C359.173 714.585 364.703 704.63 364.703 704.63Z" fill="#131313"/>
<path fill-rule="evenodd" clip-rule="evenodd" d="M396.909 713.085L398.239 716.209C398.239 716.209 411.945 724.6 430.876 716.812C430.876 716.812 432.933 715.585 431.288 714.848C429.642 714.109 412.86 703.055 411.5 703.5C410.142 703.945 403.509 714.024 396.909 713.085Z" fill="#131313"/>
<path fill-rule="evenodd" clip-rule="evenodd" d="M343.979 686.515C343.979 686.515 342.191 690.721 345.437 691.976C348.682 693.233 366.997 702.339 366.997 702.339L367.358 701.336C366.215 698.464 363.001 692.021 362.188 687.633L343.979 686.515Z" fill="#131313"/>
<path fill-rule="evenodd" clip-rule="evenodd" d="M260.163 276.147C260.163 276.147 262.897 302.533 238.576 316.085C238.576 316.085 238.146 333.061 265.346 333.061C292.546 333.061 293.121 318.654 293.121 318.654C293.121 318.654 280.602 309.378 279.16 307.097C279.16 307.097 280.025 298.112 282.329 294.261C284.63 290.41 286.502 280.142 275.277 274.576C264.049 269.014 260.163 276.147 260.163 276.147Z" fill="#FFC280"/>
<path fill-rule="evenodd" clip-rule="evenodd" d="M202.463 342.27C197.309 363.312 192.584 401.967 191.512 407.552C190.439 413.137 180.56 471.976 174.118 479.922C167.675 487.867 157.796 501.609 156.724 503.546C156.724 503.546 153.072 509.77 150.818 522.655C150.818 522.655 151.139 523.837 152.321 524.267C152.321 524.267 150.172 528.776 150.818 529.097C151.46 529.422 152.751 530.818 154.148 529.528C155.542 528.24 160.909 512.779 162.521 511.382C164.13 509.988 154.681 529.528 154.575 530.709C154.466 531.888 157.369 531.782 157.369 531.782C157.369 531.782 164.13 521.688 164.669 520.079C165.206 518.47 168.212 514.388 168.857 514.388C169.5 514.388 164.345 523.085 163.272 524.482C162.2 525.879 161.769 527.918 162.09 528.346C162.415 528.776 165.742 527.812 166.387 527.273C167.03 526.737 177.124 512.758 177.554 512.818C177.981 512.885 178.733 511.918 179.272 511.167C179.809 510.415 177.554 516.749 179.378 519.973C179.378 519.973 180.024 520.618 182.169 520.618C182.169 520.618 184.424 512.349 185.606 511.273C186.787 510.2 188.612 499.676 189.9 496.564C191.19 493.452 187.539 490.552 193.872 477.025C200.209 463.494 211.59 440.622 211.59 415.497C211.59 415.497 220.718 383.231 226.193 375.367C226.193 375.367 235.97 395.839 237.06 423.97C237.06 423.97 254.05 433.891 301.131 425.259C301.131 425.259 305.542 406.694 311.554 397.673C317.566 388.655 320.297 381.57 321.433 376.415C322.569 371.258 316.063 358.803 314.56 355.585C313.057 352.361 320 337.543 307.939 328.094C295.878 318.646 293.206 318.425 293.206 318.425C293.206 318.425 262.963 343.182 239.693 315.882C239.693 315.882 207.618 321.225 202.463 342.27Z" fill="#FFC280"/>
<path fill-rule="evenodd" clip-rule="evenodd" d="M239.425 313.278C239.425 313.278 251.449 325.521 255.315 329.384C259.182 333.251 292.897 352.148 290.318 315.857C290.318 315.857 309.646 326.378 312.437 333.036C315.231 339.693 315.443 350.215 315.443 353.651C315.443 357.087 324.034 371.905 320.597 379.851C317.161 387.796 314.585 389.945 313.297 400.896C312.009 411.845 311.364 430.96 276.791 431.175C242.215 431.39 236.418 429.672 233.412 415.496C230.403 401.327 234.27 390.372 225.467 377.702L223.534 383.715C223.534 383.715 207.643 382.212 191.537 374.481C191.537 374.481 198.406 331.318 213.655 324.018C228.9 316.715 239.425 313.278 239.425 313.278Z" fill="#0A0700"/>
<path fill-rule="evenodd" clip-rule="evenodd" d="M254.671 278.72C254.671 278.72 258.107 285.592 265.622 290.102C273.14 294.611 282.589 301.483 287.31 299.98C292.037 298.477 304.556 288.883 307.562 278.15C310.568 267.411 312.437 249.514 310.504 240.711C308.571 231.905 297.619 213.438 278.08 213.438C258.534 213.438 241.14 234.05 245.868 256.814C245.868 256.814 240.434 263.474 245.083 270.344C249.731 277.217 254.671 278.72 254.671 278.72Z" fill="#FFC280"/>
<path fill-rule="evenodd" clip-rule="evenodd" d="M266.33 264.332C266.33 264.332 274.957 264.547 277.248 266.211C277.248 266.211 278.088 266.508 277.763 265.405C277.763 265.405 279.003 266.289 279.081 265.808C279.16 265.326 278.542 260.653 273.684 260.011C268.827 259.365 265.175 263.823 266.33 264.332Z" fill="#20180F"/>
<path fill-rule="evenodd" clip-rule="evenodd" d="M304.126 263.098C304.126 263.098 298.65 263.016 296.435 264.677C296.435 264.677 295.62 264.974 295.935 263.874C295.935 263.874 294.738 264.758 294.66 264.277C294.584 263.792 296.811 259.392 301.514 258.746C306.214 258.107 307.457 262.219 304.126 263.098Z" fill="#20180F"/>
<path fill-rule="evenodd" clip-rule="evenodd" d="M289.791 279.312C289.791 279.312 289.146 279.848 289.791 280.385C290.436 280.921 294.676 279.418 295.643 278.021C296.609 276.624 296.036 276.466 294.658 277.269C293.279 278.075 289.791 279.312 289.791 279.312Z" fill="#20180F"/>
<path fill-rule="evenodd" clip-rule="evenodd" d="M281.094 283.659C281.094 283.659 280.824 283.177 283.133 283.177C285.445 283.177 285.227 283.604 288.985 283.659C292.745 283.713 294.282 283.659 292.815 284.625C291.348 285.592 291.454 285.538 291.188 286.289C290.918 287.041 287.521 288.386 284.842 287.471C282.166 286.559 279.433 284.135 281.094 283.659Z" fill="#EE4E2F"/>
<path fill-rule="evenodd" clip-rule="evenodd" d="M264.969 251.663C265.381 251.536 264.826 252.375 266.687 252.057C268.55 251.733 273.629 251.16 278.211 254.024C278.211 254.024 279.032 253.378 279.087 252.163C279.141 251.024 271.426 247.124 264.86 251.448C264.411 251.742 264.55 251.79 264.969 251.663Z" fill="#20180F"/>
<path fill-rule="evenodd" clip-rule="evenodd" d="M304.126 252.092C304.126 252.092 301.408 249.156 296.826 250.516C292.241 251.877 292.671 253.953 292.817 254.525C292.956 255.098 296.25 252.304 299.686 252.341C303.123 252.377 304.126 253.092 304.126 252.092Z" fill="#20180F"/>
<path fill-rule="evenodd" clip-rule="evenodd" d="M266.913 264.332C266.913 264.332 275.54 264.547 277.831 266.211C277.831 266.211 278.671 266.508 278.346 265.405C278.346 265.405 279.583 266.289 279.662 265.808C279.743 265.326 279.125 260.653 274.268 260.011C269.407 259.365 265.759 263.823 266.913 264.332Z" fill="black"/>
<path fill-rule="evenodd" clip-rule="evenodd" d="M304.706 263.098C304.706 263.098 299.233 263.016 297.018 264.677C297.018 264.677 296.203 264.974 296.515 263.874C296.515 263.874 295.318 264.758 295.243 264.277C295.167 263.792 297.391 259.392 302.097 258.746C306.797 258.107 308.037 262.219 304.706 263.098Z" fill="black"/>
<path fill-rule="evenodd" clip-rule="evenodd" d="M290.374 279.312C290.374 279.312 289.728 279.848 290.374 280.385C291.016 280.921 295.259 279.418 296.225 278.021C297.192 276.624 296.619 276.466 295.237 277.269C293.862 278.075 290.374 279.312 290.374 279.312Z" fill="black"/>
<path fill-rule="evenodd" clip-rule="evenodd" d="M281.677 283.659C281.677 283.659 281.407 283.177 283.716 283.177C286.025 283.177 285.81 283.604 289.568 283.659C293.325 283.713 294.865 283.659 293.395 284.625C291.931 285.592 292.037 285.538 291.768 286.289C291.501 287.041 288.101 288.386 285.425 287.471C282.749 286.559 280.016 284.135 281.677 283.659Z" fill="#EE4E2F"/>
<path fill-rule="evenodd" clip-rule="evenodd" d="M265.552 251.663C265.964 251.536 265.409 252.375 267.27 252.057C269.133 251.733 274.212 251.16 278.794 254.024C278.794 254.024 279.615 253.378 279.67 252.163C279.721 251.024 272.006 247.124 265.443 251.448C264.994 251.742 265.133 251.79 265.552 251.663Z" fill="black"/>
<path fill-rule="evenodd" clip-rule="evenodd" d="M304.706 252.092C304.706 252.092 301.988 249.156 297.406 250.516C292.824 251.877 293.252 253.953 293.397 254.525C293.54 255.098 296.834 252.304 300.27 252.341C303.706 252.377 304.706 253.092 304.706 252.092Z" fill="black"/>
<path fill-rule="evenodd" clip-rule="evenodd" d="M309.843 230.223C308.128 228.884 313.28 227.996 311.295 223.193C310.016 220.102 304.583 218.796 302.895 217.099C301.813 216.011 304.707 214.526 301.865 212.211C299.925 210.626 294.053 210.456 290.971 209.896C284.868 208.787 283.037 203.184 275.577 209.514C275.062 209.953 274.274 209.42 274.419 208.756C274.592 207.938 274.768 206.89 274.859 205.647C274.934 204.635 277.807 204.093 278.513 203.062C280.298 200.472 276.486 195.82 275.595 192.281C274.762 188.956 267.895 187.987 267.004 186.362C259.277 172.314 245.683 179.553 241.631 189.202C240.846 191.062 237.174 187.741 231.416 188.068C226.634 188.338 218.368 198.444 227.607 204.035C227.607 204.035 223.201 209.626 224.849 214.09C225.574 216.047 231.904 216.878 232.877 219.681C233.759 222.229 238.749 227.529 242.095 228.529C242.322 228.599 242.337 228.911 242.116 229.005C239.398 230.162 230.407 234.947 236.119 247.729C237.262 250.29 233.94 253.596 235.549 256.814C236.846 259.405 239.071 258.038 240.495 259.947C241.495 261.284 239.522 265.95 240.84 267.341C242.668 269.272 244.819 271.247 247.334 273.268C247.334 273.268 240.913 267.417 244.401 259.259C246.231 254.987 250.71 256.159 252.413 258.162C254.386 260.481 256.725 265.272 257.868 265.272C259.007 265.272 256.059 247.296 268.925 236.317C273.022 232.82 279.671 226.708 293.946 229.111C309.656 231.753 311.295 249.459 311.295 249.459C311.295 249.459 314.834 248.011 314.989 240.775C315.095 235.714 313.789 233.314 309.843 230.223Z" fill="#765227"/>
<path fill-rule="evenodd" clip-rule="evenodd" d="M249.375 265.371C249.375 265.371 248.85 264.765 248.868 265.734C248.89 266.704 248.647 267.231 248.365 267.149C248.081 267.071 246.747 264.743 248.747 263.652C250.75 262.562 251.841 264.725 253.278 267.413C254.711 270.101 254.165 273.919 252.772 274.062C251.378 274.204 251.781 273.234 251.92 271.295C252.062 269.352 250.102 265.774 249.375 265.371Z" fill="black"/>
<path fill-rule="evenodd" clip-rule="evenodd" d="M256.838 506.382L391.47 506.152C394.837 506.149 397.54 503.082 397.473 499.339V499.252L252 499.497L252.029 501.149C252.079 504.055 254.222 506.388 256.838 506.382Z" fill="#807A74"/>
<path fill-rule="evenodd" clip-rule="evenodd" d="M305.134 505.482L407.055 505.879C410.476 505.891 413.501 503.676 414.488 500.43L435.322 431.849C436.819 426.93 433.085 421.982 427.894 422L328.564 422.391C325.27 422.403 322.343 424.482 321.279 427.567L297.856 495.364C296.143 500.312 299.848 505.461 305.134 505.482Z" fill="#BFBAB4"/>
</svg>
